SplineFontDB: 3.2
FontName: DSSPaleo
FullName: DSS Paleo
FamilyName: DSS Paleo
Weight: Book
Copyright: Isaiah Scroll (c) Kris J. Udd. 2006. All Rights Reserved
Version: 1.00 December 16, 2006, initial release
ItalicAngle: 0
UnderlinePosition: -292
UnderlineWidth: 150
Ascent: 1638
Descent: 410
InvalidEm: 0
sfntRevision: 0x00010000
LayerCount: 2
Layer: 0 1 "Back" 1
Layer: 1 1 "Fore" 0
XUID: [1021 656 -860013321 8694890]
StyleMap: 0x0040
FSType: 8
OS2Version: 1
OS2_WeightWidthSlopeOnly: 0
OS2_UseTypoMetrics: 0
CreationTime: 1166303601
ModificationTime: 1726719696
PfmFamily: 17
TTFWeight: 400
TTFWidth: 5
LineGap: 67
VLineGap: 0
Panose: 2 0 0 0 0 0 0 0 0 0
OS2TypoAscent: 1491
OS2TypoAOffset: 0
OS2TypoDescent: -431
OS2TypoDOffset: 0
OS2TypoLinegap: 307
OS2WinAscent: 1854
OS2WinAOffset: 0
OS2WinDescent: 434
OS2WinDOffset: 0
HheadAscent: 1854
HheadAOffset: 0
HheadDescent: -434
HheadDOffset: 0
OS2SubXSize: 1434
OS2SubYSize: 1331
OS2SubXOff: 0
OS2SubYOff: 283
OS2SupXSize: 1434
OS2SupYSize: 1331
OS2SupXOff: 0
OS2SupYOff: 977
OS2StrikeYSize: 102
OS2StrikeYPos: 530
OS2Vendor: 'HL  '
OS2CodePages: 6000019f.dff70000
OS2UnicodeRanges: a00002af.500078fb.00000000.00000000
MarkAttachClasses: 1
DEI: 91125
ShortTable: maxp 16
  1
  0
  680
  47
  3
  0
  0
  2
  16
  47
  66
  0
  1036
  0
  0
  0
EndShort
LangName: 1033 "Isaiah Scroll +AKkA Kris J. Udd. 2006. All Rights Reserved" "" "Regular" "FontForge 2.0 : DSS Paleo : 30-8-2024" "" "Version 1.00 December 16, 2006, initial release" "" "" "" "" "This font was created using Font Creator 5.0 from High-Logic.com"
LangName: 1027 "" "" "Normal"
LangName: 1029 "" "" "oby+AQ0A-ejn+AOkA"
LangName: 1030 "" "" "normal"
LangName: 1031 "" "" "Standard"
LangName: 1032 "" "" "+A5oDsQO9A78DvQO5A7oDrAAA"
LangName: 1034 "" "" "Normal"
LangName: 1035 "" "" "Normaali"
LangName: 1036 "" "" "Normal"
LangName: 1038 "" "" "Norm+AOEA-l"
LangName: 1040 "" "" "Normale"
LangName: 1043 "" "" "Standaard"
LangName: 1044 "" "" "Normal"

StartChar: .notdef
Encoding: 65536 -1 0
Width: 1536
GlyphClass: 1
Flags: W
LayerCount: 2
Fore
SplineSet
256 0 m 1,0,-1
 256 1280 l 1,1,-1
 1280 1280 l 1,2,-1
 1280 0 l 1,3,-1
 256 0 l 1,0,-1
288 32 m 1,4,-1
 1248 32 l 1,5,-1
 1248 1248 l 1,6,-1
 288 1248 l 1,7,-1
 288 32 l 1,4,-1
EndSplineSet
Validated: 1
EndChar

StartChar: exclam
Encoding: 33 33 4
Width: 899
GlyphClass: 1
Flags: W
LayerCount: 2
Fore
SplineSet
482 1312 m 0,0,1
 549 1312 549 1312 662 1149 c 1,2,-1
 662 1131 l 1,3,4
 619 922 619 922 611 805 c 1,5,6
 619 660 619 660 671 435 c 1,7,8
 671 259 671 259 267 168 c 1,9,10
 111 99 111 99 60 99 c 1,11,12
 0 123 0 123 0 194 c 0,13,14
 0 287 0 287 430 461 c 1,15,-1
 447 512 l 1,16,-1
 447 564 l 1,17,-1
 404 977 l 1,18,19
 404 1312 404 1312 482 1312 c 0,0,1
EndSplineSet
Validated: 1
EndChar

StartChar: numbersign
Encoding: 35 35 6
Width: 1191
GlyphClass: 1
Flags: W
LayerCount: 2
Fore
SplineSet
888 1398 m 0,0,1
 945 1398 945 1398 945 1108 c 1,2,-1
 954 940 l 2,3,4
 954 877 954 877 711 809 c 1,5,6
 561 703 561 703 561 687 c 0,7,8
 562 568 562 568 683 154 c 1,9,10
 683 24 683 24 56 -79 c 1,11,12
 8 -79 8 -79 0 -51 c 1,13,-1
 0 -32 l 2,14,15
 0 141 0 141 178 173 c 1,16,17
 436 249 436 249 449 304 c 1,18,-1
 449 351 l 1,19,20
 387 757 387 757 234 1005 c 1,21,-1
 187 1089 l 1,22,-1
 187 1127 l 1,23,24
 204 1218 204 1218 337 1379 c 1,25,-1
 355 1379 l 2,26,27
 379 1379 379 1379 477 949 c 1,28,-1
 514 949 l 1,29,-1
 711 1033 l 1,30,-1
 729 1276 l 1,31,32
 735 1296 735 1296 776 1342 c 1,33,34
 856 1398 856 1398 888 1398 c 0,0,1
EndSplineSet
Validated: 1
EndChar

StartChar: dollar
Encoding: 36 36 7
Width: 980
GlyphClass: 1
Flags: W
LayerCount: 2
Fore
SplineSet
153 1369 m 0,0,1
 229 1369 229 1369 229 1264 c 2,2,-1
 229 1140 l 2,3,4
 229 1054 229 1054 305 1054 c 2,5,-1
 363 1054 l 1,6,7
 413 1085 413 1085 477 1235 c 1,8,9
 492 1296 492 1296 563 1293 c 0,10,11
 624 1293 624 1293 630 1150 c 1,12,-1
 601 959 l 1,13,-1
 601 854 l 1,14,-1
 601 749 l 1,15,16
 606 547 606 547 716 224 c 1,17,18
 716 42 716 42 229 -110 c 1,19,20
 136 -167 136 -167 86 -167 c 0,21,22
 0 -167 0 -167 0 -52 c 0,23,24
 0 64 0 64 468 195 c 1,25,26
 496 230 496 230 496 262 c 2,27,-1
 496 281 l 1,28,-1
 420 691 l 1,29,-1
 429 854 l 1,30,31
 395 882 395 882 363 882 c 2,32,-1
 267 882 l 2,33,34
 38 882 38 882 38 1111 c 2,35,-1
 38 1121 l 1,36,37
 70 1369 70 1369 153 1369 c 0,0,1
EndSplineSet
Validated: 33
EndChar

StartChar: percent
Encoding: 37 37 8
Width: 980
GlyphClass: 1
Flags: W
LayerCount: 2
Fore
SplineSet
153 1369 m 0,0,1
 229 1369 229 1369 229 1264 c 2,2,-1
 229 1140 l 2,3,4
 229 1054 229 1054 305 1054 c 2,5,-1
 363 1054 l 1,6,7
 413 1085 413 1085 477 1235 c 1,8,9
 492 1296 492 1296 563 1293 c 0,10,11
 624 1293 624 1293 630 1150 c 1,12,-1
 601 959 l 1,13,-1
 601 854 l 1,14,-1
 601 749 l 1,15,16
 606 547 606 547 716 224 c 1,17,18
 716 42 716 42 229 -110 c 1,19,20
 136 -167 136 -167 86 -167 c 0,21,22
 0 -167 0 -167 0 -52 c 0,23,24
 0 64 0 64 468 195 c 1,25,26
 496 230 496 230 496 262 c 2,27,-1
 496 281 l 1,28,-1
 420 691 l 1,29,-1
 429 854 l 1,30,31
 395 882 395 882 363 882 c 2,32,-1
 267 882 l 2,33,34
 38 882 38 882 38 1111 c 2,35,-1
 38 1121 l 1,36,37
 70 1369 70 1369 153 1369 c 0,0,1
EndSplineSet
Validated: 33
EndChar

StartChar: hyphen
Encoding: 45 45 16
AltUni2: 0000ad.ffffffff.0 0000ad.ffffffff.0
Width: 559
GlyphClass: 1
Flags: W
LayerCount: 2
Fore
SplineSet
446 766 m 1,0,-1
 20 766 l 1,1,-1
 20 903 l 1,2,-1
 446 903 l 1,3,-1
 446 766 l 1,0,-1
EndSplineSet
Validated: 1
EndChar

StartChar: zero
Encoding: 48 48 19
Width: 720
GlyphClass: 1
Flags: W
LayerCount: 2
Fore
SplineSet
685 469 m 0,0,1
 685 272 685 272 620 145 c 0,2,3
 536 -22 536 -22 360 -22 c 256,4,5
 184 -22 184 -22 100 145 c 0,6,7
 34 274 34 274 34 469 c 256,8,9
 34 664 34 664 100 799 c 0,10,11
 186 977 186 977 360 977 c 256,12,13
 534 977 534 977 620 799 c 0,14,15
 685 664 685 664 685 469 c 0,0,1
540 489 m 0,16,17
 540 940 540 940 364 940 c 0,18,19
 184 940 184 940 184 469 c 0,20,21
 184 16 184 16 364 16 c 0,22,23
 540 16 540 16 540 489 c 0,16,17
EndSplineSet
Validated: 1
EndChar

StartChar: one
Encoding: 49 49 20
Width: 720
GlyphClass: 1
Flags: W
LayerCount: 2
Fore
SplineSet
575 0 m 1,0,-1
 165 0 l 1,1,-1
 165 31 l 1,2,3
 306 31 306 31 306 121 c 2,4,-1
 306 762 l 2,5,6
 306 838 306 838 251 838 c 0,7,8
 220 838 220 838 159 817 c 1,9,-1
 159 831 l 1,10,11
 421 969 421 969 433 969 c 2,12,-1
 435 969 l 1,13,-1
 435 119 l 2,14,15
 435 31 435 31 575 31 c 1,16,-1
 575 0 l 1,0,-1
EndSplineSet
Validated: 1
EndChar

StartChar: two
Encoding: 50 50 21
Width: 720
GlyphClass: 1
Flags: W
LayerCount: 2
Fore
SplineSet
687 201 m 1,0,-1
 618 0 l 1,1,-1
 34 0 l 1,2,-1
 34 18 l 1,3,4
 276 260 276 260 319 311 c 0,5,6
 487 512 487 512 487 664 c 0,7,8
 487 745 487 745 442 805 c 1,9,10
 390 866 390 866 310 866 c 0,11,12
 218 866 218 866 165 819 c 0,13,14
 138 797 138 797 67 698 c 1,15,-1
 34 715 l 1,16,17
 149 969 149 969 339 969 c 0,18,19
 450 969 450 969 526.5 905.5 c 128,-1,20
 603 842 603 842 603 733 c 0,21,22
 603 575 603 575 458 391 c 0,23,24
 405 324 405 324 192 109 c 1,25,-1
 530 109 l 2,26,27
 593 109 593 109 671 215 c 1,28,-1
 687 201 l 1,0,-1
EndSplineSet
Validated: 1
EndChar

StartChar: three
Encoding: 51 51 22
Width: 720
GlyphClass: 1
Flags: W
LayerCount: 2
Fore
SplineSet
618 303 m 0,0,1
 618 147 618 147 501 61 c 0,2,3
 397 -16 397 -16 235 -16 c 0,4,5
 63 -16 63 -16 63 59 c 0,6,7
 63 113 63 113 122 113 c 0,8,9
 149 113 149 113 219.5 72 c 128,-1,10
 290 31 290 31 323 31 c 0,11,12
 419 31 419 31 469 98 c 0,13,14
 514 160 514 160 514 258 c 0,15,16
 514 387 514 387 421 440 c 0,17,18
 354 479 354 479 210 485 c 1,19,-1
 210 504 l 1,20,21
 309 514 309 514 382.5 578.5 c 128,-1,22
 456 643 456 643 456 739 c 0,23,24
 456 803 456 803 416 845 c 128,-1,25
 376 887 376 887 313 887 c 0,26,27
 235 887 235 887 180 840 c 0,28,29
 147 811 147 811 88 729 c 1,30,-1
 67 745 l 1,31,32
 122 862 122 862 176 909 c 0,33,34
 245 969 245 969 360 969 c 0,35,36
 448 969 448 969 505 924 c 0,37,38
 569 872 569 872 569 786 c 0,39,40
 569 717 569 717 534 664 c 0,41,42
 509 627 509 627 446 571 c 1,43,44
 540 520 540 520 577 467 c 0,45,46
 618 406 618 406 618 303 c 0,0,1
EndSplineSet
Validated: 1
EndChar

StartChar: four
Encoding: 52 52 23
Width: 720
GlyphClass: 1
Flags: W
LayerCount: 2
Fore
SplineSet
675 231 m 1,0,-1
 540 231 l 1,1,-1
 540 0 l 1,2,-1
 417 0 l 1,3,-1
 417 231 l 1,4,-1
 28 231 l 1,5,-1
 28 324 l 1,6,-1
 479 969 l 1,7,-1
 540 969 l 1,8,-1
 540 324 l 1,9,-1
 675 324 l 1,10,-1
 675 231 l 1,0,-1
417 324 m 1,11,-1
 417 791 l 1,12,-1
 81 324 l 1,13,-1
 417 324 l 1,11,-1
EndSplineSet
Validated: 1
EndChar

StartChar: five
Encoding: 53 53 24
Width: 720
GlyphClass: 1
Flags: W
LayerCount: 2
Fore
SplineSet
627 979 m 1,0,-1
 559 844 l 1,1,-1
 260 844 l 1,2,-1
 199 713 l 1,3,4
 420 676 420 676 504 606 c 0,5,6
 614 516 614 516 614 311 c 0,7,8
 614 166 614 166 500 72 c 0,9,10
 393 -18 393 -18 246 -18 c 0,11,12
 49 -18 49 -18 49 72 c 0,13,14
 49 129 49 129 108 129 c 0,15,16
 139 129 139 129 209.5 80 c 128,-1,17
 280 31 280 31 323 31 c 0,18,19
 407 31 407 31 461 113 c 0,20,21
 508 184 508 184 508 272 c 0,22,23
 508 545 508 545 92 586 c 1,24,-1
 246 954 l 1,25,26
 280 954 280 954 347 948 c 128,-1,27
 414 942 414 942 448 942 c 0,28,29
 573 942 573 942 612 989 c 1,30,-1
 627 979 l 1,0,-1
EndSplineSet
Validated: 1
EndChar

StartChar: six
Encoding: 54 54 25
Width: 720
GlyphClass: 1
Flags: W
LayerCount: 2
Fore
SplineSet
678 293 m 0,0,1
 678 162 678 162 598 72 c 0,2,3
 514 -24 514 -24 385 -24 c 0,4,5
 227 -24 227 -24 135 100 c 0,6,7
 51 213 51 213 51 377 c 0,8,9
 51 635 51 635 212 810 c 128,-1,10
 373 985 373 985 629 985 c 1,11,-1
 629 961 l 1,12,13
 457 926 457 926 358 821 c 0,14,15
 276 733 276 733 213 551 c 1,16,17
 297 621 297 621 407 621 c 0,18,19
 536 621 536 621 610 518 c 0,20,21
 678 426 678 426 678 293 c 0,0,1
545 293 m 0,22,23
 545 397 545 397 500 467 c 0,24,25
 446 549 446 549 348 549 c 0,26,27
 237 549 237 549 203 483 c 0,28,29
 180 440 180 440 180 317 c 0,30,31
 180 209 180 209 233 121 c 0,32,33
 295 18 295 18 397 18 c 0,34,35
 545 18 545 18 545 293 c 0,22,23
EndSplineSet
Validated: 1
EndChar

StartChar: seven
Encoding: 55 55 26
Width: 720
GlyphClass: 1
Flags: W
LayerCount: 2
Fore
SplineSet
640 950 m 1,0,-1
 349 0 l 1,1,-1
 251 0 l 1,2,-1
 517 856 l 1,3,-1
 225 856 l 2,4,5
 161 856 161 856 124 823 c 0,6,7
 110 809 110 809 59 735 c 1,8,-1
 30 750 l 1,9,-1
 112 969 l 1,10,-1
 640 969 l 1,11,-1
 640 950 l 1,0,-1
EndSplineSet
Validated: 1
EndChar

StartChar: eight
Encoding: 56 56 27
Width: 720
GlyphClass: 1
Flags: W
LayerCount: 2
Fore
SplineSet
634 221 m 0,0,1
 634 109 634 109 551 42.5 c 128,-1,2
 468 -24 468 -24 353 -24 c 0,3,4
 243 -24 243 -24 163 39 c 0,5,6
 77 106 77 106 77 215 c 0,7,8
 77 352 77 352 272 477 c 1,9,10
 171 557 171 557 140 594 c 0,11,12
 81 664 81 664 81 756 c 0,13,14
 81 856 81 856 169 920 c 0,15,16
 249 977 249 977 353 977 c 0,17,18
 454 977 454 977 526 928 c 0,19,20
 607 872 607 872 607 776 c 0,21,22
 607 618 607 618 417 539 c 1,23,24
 634 377 634 377 634 221 c 0,0,1
501 776 m 0,25,26
 501 938 501 938 329 938 c 0,27,28
 270 938 270 938 232 893 c 128,-1,29
 194 848 194 848 194 788 c 0,30,31
 194 664 194 664 376 559 c 1,32,33
 501 662 501 662 501 776 c 0,25,26
523 178 m 0,34,35
 523 258 523 258 448 336 c 0,36,37
 409 377 409 377 306 451 c 1,38,39
 186 360 186 360 186 233 c 0,40,41
 186 150 186 150 235 84 c 128,-1,42
 284 18 284 18 366 18 c 0,43,44
 523 18 523 18 523 178 c 0,34,35
EndSplineSet
Validated: 1
EndChar

StartChar: nine
Encoding: 57 57 28
Width: 720
GlyphClass: 1
Flags: W
LayerCount: 2
Fore
SplineSet
671 594 m 0,0,1
 671 332 671 332 511 159 c 128,-1,2
 351 -14 351 -14 91 -18 c 1,3,-1
 91 8 l 1,4,5
 265 43 265 43 366 154 c 0,6,7
 448 246 448 246 503 418 c 1,8,9
 425 344 425 344 312 344 c 0,10,11
 179 344 179 344 106 446 c 0,12,13
 40 537 40 537 40 676 c 0,14,15
 40 809 40 809 121 900 c 128,-1,16
 202 991 202 991 333 991 c 0,17,18
 493 991 493 991 587 870 c 0,19,20
 671 758 671 758 671 594 c 0,0,1
536 651 m 0,21,22
 536 762 536 762 484 848 c 0,23,24
 425 950 425 950 321 950 c 0,25,26
 173 950 173 950 173 676 c 0,27,28
 173 567 173 567 216 500 c 0,29,30
 267 418 267 418 370 418 c 0,31,32
 482 418 482 418 515 483 c 0,33,34
 536 524 536 524 536 651 c 0,21,22
EndSplineSet
Validated: 1
EndChar

StartChar: at
Encoding: 64 64 35
Width: 801
GlyphClass: 1
Flags: W
LayerCount: 2
Fore
SplineSet
334 1255 m 1,0,1
 419 1255 419 1255 574 267 c 1,2,3
 574 53 574 53 399 53 c 1,4,5
 257 4 257 4 102 -12 c 1,6,7
 44 -12 44 -12 24 46 c 1,8,9
 24 151 24 151 214 218 c 1,10,11
 380 244 380 244 380 325 c 1,12,13
 237 884 237 884 208 886 c 1,14,-1
 78 804 l 1,15,16
 17 824 17 824 10 853 c 1,17,-1
 10 892 l 1,18,-1
 159 1109 l 1,19,20
 182 1178 182 1178 276 1236 c 1,21,-1
 334 1255 l 1,0,1
EndSplineSet
Validated: 1
EndChar

StartChar: A
Encoding: 65 65 36
Width: 1406
GlyphClass: 1
Flags: W
LayerCount: 2
Fore
SplineSet
171 1317 m 1,0,1
 244 1317 244 1317 471 964 c 1,2,3
 571 824 571 824 632 824 c 0,4,5
 664 824 664 824 717 1189 c 1,6,7
 750 1274 750 1274 824 1285 c 1,8,9
 926 1285 926 1285 985 1124 c 1,10,11
 985 917 985 917 814 653 c 1,12,13
 1178 338 1178 338 1178 161 c 1,14,15
 1131 21 1131 21 1028 21 c 0,16,17
 1007 23 1007 23 675 396 c 1,18,-1
 428 610 l 1,19,20
 277 610 277 610 257 171 c 1,21,-1
 257 118 l 1,22,23
 249 24 249 24 139 0 c 1,24,25
 75 0 75 0 43 139 c 1,26,27
 107 268 107 268 150 600 c 1,28,29
 186 701 186 701 300 771 c 1,30,31
 64 1049 64 1049 0 1156 c 1,32,33
 0 1242 0 1242 171 1317 c 1,0,1
EndSplineSet
Validated: 1
EndChar

StartChar: B
Encoding: 66 66 37
Width: 1475
GlyphClass: 1
Flags: W
LayerCount: 2
Fore
SplineSet
410 1341 m 1,0,-1
 421 1341 l 2,1,2
 521 1341 521 1341 521 1153 c 1,3,4
 557 1108 557 1108 798 1108 c 0,5,6
 956 1108 956 1108 997 1186 c 1,7,8
 1027 1297 1027 1297 1108 1297 c 2,9,-1
 1119 1297 l 1,10,11
 1186 1274 1186 1274 1186 1208 c 1,12,-1
 1153 887 l 1,13,-1
 1153 765 l 2,14,15
 1153 616 1153 616 1208 321 c 1,16,17
 1168 133 1168 133 1075 133 c 1,18,-1
 709 89 l 1,19,20
 187 44 187 44 44 0 c 1,21,22
 0 17 0 17 0 55 c 1,23,24
 197 288 197 288 266 288 c 2,25,-1
 698 277 l 1,26,-1
 776 277 l 2,27,28
 920 277 920 277 920 355 c 1,29,-1
 898 532 l 1,30,-1
 901 861 l 1,31,-1
 388 853 l 2,32,33
 288 853 288 853 288 986 c 0,34,35
 288 1223 288 1223 410 1341 c 1,0,-1
EndSplineSet
Validated: 1
EndChar

StartChar: C
Encoding: 67 67 38
Width: 972
GlyphClass: 1
Flags: W
LayerCount: 2
Fore
SplineSet
243 1263 m 1,0,1
 344 1275 344 1275 320 1126 c 1,2,-1
 339 1017 l 1,3,4
 472 1050 472 1050 533 1202 c 1,5,-1
 593 1233 l 1,6,7
 700 1208 700 1208 700 1157 c 1,8,9
 620 951 620 951 522.5 891 c 128,-1,10
 425 831 425 831 396 776 c 1,11,12
 465 471 465 471 433 394 c 1,13,14
 350 155 350 155 91 0 c 1,15,16
 0 0 0 0 0 107 c 1,17,18
 213 332 213 332 213 396 c 1,19,20
 262 530 262 530 183 776 c 1,21,22
 143 843 143 843 122 1065 c 1,23,24
 122 1197 122 1197 243 1263 c 1,0,1
EndSplineSet
Validated: 33
EndChar

StartChar: D
Encoding: 68 68 39
Width: 1077
GlyphClass: 1
Flags: W
LayerCount: 2
Fore
SplineSet
741 1308 m 2,0,-1
 750 1308 l 1,1,2
 798 1293 798 1293 798 1183 c 2,3,-1
 798 1087 l 1,4,-1
 789 692 l 1,5,-1
 789 192 l 1,6,7
 754 10 754 10 712 10 c 1,8,-1
 673 0 l 1,9,10
 558 0 558 0 558 144 c 2,11,-1
 558 164 l 1,12,-1
 577 779 l 1,13,-1
 577 827 l 1,14,-1
 558 846 l 1,15,16
 363 846 363 846 67 726 c 1,17,18
 15 717 15 717 0 856 c 1,19,20
 40 1289 40 1289 125 1289 c 1,21,22
 260 1256 260 1256 260 1135 c 1,23,24
 221 955 221 955 298 971 c 0,25,26
 595 1025 595 1025 596 1039 c 0,27,28
 596 1308 596 1308 741 1308 c 2,0,-1
EndSplineSet
Validated: 33
EndChar

StartChar: F
Encoding: 70 70 41
Width: 1649
GlyphClass: 1
Flags: W
LayerCount: 2
Fore
SplineSet
707 1296 m 1,0,1
 849 1276 849 1276 849 1198 c 0,2,3
 849 1014 849 1014 419 689 c 1,4,-1
 419 469 l 2,5,6
 419 416 419 416 459 399 c 1,7,-1
 479 399 l 1,8,9
 907 570 907 570 1118 939 c 1,10,11
 1186 1258 1186 1258 1298 1258 c 2,12,-1
 1358 1258 l 1,13,14
 1428 1230 1428 1230 1428 1148 c 2,15,-1
 1428 1118 l 2,16,17
 1428 908 1428 908 1078 509 c 1,18,19
 833 318 833 318 589 220 c 1,20,-1
 359 10 l 1,21,-1
 320 0 l 1,22,23
 230 49 230 49 230 160 c 1,24,-1
 240 339 l 1,25,26
 215 621 215 621 0 1038 c 1,27,-1
 0 1098 l 1,28,29
 58 1208 58 1208 150 1298 c 1,30,-1
 170 1298 l 2,31,32
 223 1298 223 1298 369 909 c 1,33,-1
 379 909 l 1,34,35
 547 1002 547 1002 657 1208 c 1,36,-1
 707 1296 l 1,0,1
EndSplineSet
Validated: 1
EndChar

StartChar: G
Encoding: 71 71 42
Width: 1678
GlyphClass: 1
Flags: W
LayerCount: 2
Fore
SplineSet
554 1300 m 1,0,1
 673 1300 673 1300 757 893 c 1,2,3
 908 564 908 564 1097 486 c 1,4,5
 1208 393 1208 393 1413 283 c 1,6,7
 1458 235 1458 235 1458 170 c 0,8,9
 1458 11 1458 11 1345 11 c 2,10,-1
 1334 11 l 2,11,12
 1204 11 1204 11 678 475 c 1,13,14
 540 475 540 475 249 147 c 1,15,16
 134 0 134 0 102 0 c 1,17,18
 32 -20 32 -20 0 57 c 1,19,20
 0 171 0 171 407 554 c 1,21,22
 502 616 502 616 543 644 c 1,23,24
 384 1115 384 1115 384 1187 c 0,25,26
 384 1273 384 1273 554 1300 c 1,0,1
EndSplineSet
Validated: 33
EndChar

StartChar: H
Encoding: 72 72 43
Width: 1702
GlyphClass: 1
Flags: W
LayerCount: 2
Fore
SplineSet
1292 1430 m 0,0,1
 1380 1430 1380 1430 1409 1239 c 1,2,-1
 1345 922 l 1,3,-1
 1356 667 l 1,4,5
 1406 341 1406 341 1462 148 c 1,6,-1
 1462 106 l 1,7,8
 1448 0 1448 0 1356 0 c 0,9,10
 1182 0 1182 0 1112 678 c 1,11,12
 1112 858 1112 858 1050 866 c 2,13,-1
 922 879 l 1,14,15
 763 739 763 739 763 466 c 2,16,-1
 763 350 l 1,17,-1
 773 201 l 1,18,19
 747 42 747 42 646 42 c 0,20,21
 587 42 587 42 561 159 c 1,22,-1
 583 466 l 1,23,24
 583 794 583 794 763 922 c 1,25,-1
 763 943 l 2,26,27
 763 977 763 977 530 1006 c 1,28,29
 340 1051 340 1051 148 879 c 1,30,31
 89 845 89 845 0 975 c 1,32,33
 0 1102 0 1102 297 1271 c 1,34,35
 419 1332 419 1332 551 1292 c 1,36,-1
 1059 1102 l 1,37,38
 1165 1102 1165 1102 1165 1250 c 1,39,40
 1198 1430 1198 1430 1292 1430 c 0,0,1
EndSplineSet
Validated: 33
EndChar

StartChar: J
Encoding: 74 74 45
Width: 1430
GlyphClass: 1
Flags: W
LayerCount: 2
Fore
SplineSet
124 1308 m 2,0,-1
 153 1308 l 2,1,2
 232 1308 232 1308 306 812 c 1,3,4
 351 239 351 239 420 239 c 2,5,-1
 496 239 l 1,6,7
 694 283 694 283 926 487 c 1,8,-1
 926 516 l 1,9,10
 870 831 870 831 802 831 c 0,11,12
 720 831 720 831 468 544 c 1,13,-1
 430 535 l 1,14,15
 401 535 401 535 372 592 c 1,16,17
 522 944 522 944 754 1041 c 1,18,-1
 945 1088 l 1,19,20
 1045 996 1045 996 1127 621 c 1,21,22
 1155 544 1155 544 1155 516 c 0,23,24
 1155 337 1155 337 974 286 c 1,25,26
 466 0 466 0 430 0 c 0,27,28
 266 0 266 0 210 229 c 1,29,30
 165 326 165 326 124 802 c 1,31,-1
 0 1203 l 1,32,-1
 0 1213 l 1,33,34
 55 1308 55 1308 124 1308 c 2,0,-1
EndSplineSet
Validated: 1
EndChar

StartChar: K
Encoding: 75 75 46
Width: 980
GlyphClass: 1
Flags: W
LayerCount: 2
Fore
SplineSet
153 1369 m 0,0,1
 229 1369 229 1369 229 1264 c 2,2,-1
 229 1140 l 2,3,4
 229 1054 229 1054 305 1054 c 2,5,-1
 362 1054 l 1,6,7
 413 1085 413 1085 477 1235 c 1,8,9
 492 1296 492 1296 563 1293 c 0,10,11
 624 1293 624 1293 630 1150 c 1,12,-1
 601 959 l 1,13,-1
 601 854 l 1,14,-1
 601 749 l 1,15,16
 606 547 606 547 716 224 c 1,17,18
 716 42 716 42 477 -61 c 1,19,20
 384 -118 384 -118 334 -118 c 0,21,22
 248 -118 248 -118 276 -24 c 1,23,24
 276 92 276 92 467 195 c 1,25,26
 496 230 496 230 496 262 c 2,27,-1
 496 281 l 1,28,-1
 420 691 l 1,29,-1
 429 854 l 1,30,31
 394 882 394 882 362 882 c 2,32,-1
 267 882 l 2,33,34
 38 882 38 882 38 1111 c 2,35,-1
 38 1121 l 1,36,37
 70 1369 70 1369 153 1369 c 0,0,1
EndSplineSet
Validated: 33
EndChar

StartChar: L
Encoding: 76 76 47
Width: 865
GlyphClass: 1
Flags: W
LayerCount: 2
Fore
SplineSet
136 1852 m 1,0,1
 278 1852 278 1852 314 783 c 1,2,-1
 317 406 l 1,3,4
 328 291 328 291 403 267 c 1,5,6
 448 221 448 221 590 151 c 0,7,8
 612 136 612 136 608 97 c 1,9,10
 483 -314 483 -314 296 -428 c 1,11,12
 229 -428 229 -428 207 -365 c 1,13,14
 207 -327 207 -327 332 -214 c 1,15,16
 429 -52 429 -52 376 -9 c 1,17,18
 339 42 339 42 207 124 c 1,19,20
 180 158 180 158 189 204 c 1,21,22
 189 579 189 579 141 1251 c 1,23,-1
 118 935 l 2,24,25
 118 881 118 881 56 855 c 1,26,27
 11 867 11 867 11 917 c 2,28,-1
 11 1059 l 1,29,-1
 11 1095 l 2,30,31
 11 1843 11 1843 91 1843 c 1,32,-1
 136 1852 l 1,0,1
EndSplineSet
Validated: 33
EndChar

StartChar: M
Encoding: 77 77 48
Width: 1175
GlyphClass: 1
Flags: W
LayerCount: 2
Fore
SplineSet
539 1264 m 1,0,1
 696 1251 696 1251 749 1144 c 1,2,3
 849 1059 849 1059 898 612 c 1,4,-1
 914 365 l 2,5,6
 934 71 934 71 644 51 c 1,7,8
 575 31 575 31 404 -69 c 1,9,-1
 383 -209 l 1,10,-1
 368 -209 l 1,11,12
 240 -238 240 -238 240 -129 c 0,13,14
 240 318 240 318 315 500 c 1,15,-1
 330 800 l 1,16,17
 330 889 330 889 210 889 c 0,18,19
 40 889 40 889 0 1084 c 1,20,21
 30 1234 30 1234 135 1234 c 0,22,23
 166 1233 166 1233 285 1099 c 1,24,-1
 315 1099 l 1,25,26
 474 1264 474 1264 539 1264 c 1,0,1
494 875 m 1,27,28
 524 545 524 545 452 252 c 1,29,30
 448 134 448 134 512 147 c 1,31,32
 749 301 749 301 749 380 c 1,33,34
 674 979 674 979 599 979 c 0,35,36
 558 979 558 979 494 875 c 1,27,28
EndSplineSet
Validated: 33
EndChar

StartChar: N
Encoding: 78 78 49
Width: 611
GlyphClass: 1
Flags: W
LayerCount: 2
Fore
SplineSet
174 1191 m 1,0,1
 211 1146 211 1146 211 1104 c 2,2,-1
 211 1005 l 1,3,-1
 199 881 l 1,4,5
 397 601 397 601 397 421 c 2,6,-1
 397 409 l 2,7,8
 397 208 397 208 211 -150 c 1,9,10
 125 -227 125 -227 124 -50 c 0,11,12
 124 102 124 102 224 247 c 1,13,-1
 236 347 l 1,14,15
 0 823 0 823 0 943 c 0,16,17
 0 1076 0 1076 161 1191 c 1,18,-1
 174 1191 l 1,0,1
EndSplineSet
Validated: 33
EndChar

StartChar: P
Encoding: 80 80 51
Width: 801
GlyphClass: 1
Flags: W
LayerCount: 2
Fore
SplineSet
334 1255 m 1,0,1
 419 1255 419 1255 574 267 c 1,2,3
 574 53 574 53 399 53 c 1,4,5
 257 4 257 4 102 -12 c 1,6,7
 44 -12 44 -12 24 46 c 1,8,9
 24 151 24 151 214 218 c 1,10,11
 380 244 380 244 380 325 c 1,12,13
 237 884 237 884 208 886 c 1,14,-1
 78 804 l 1,15,16
 17 824 17 824 10 853 c 1,17,-1
 10 892 l 1,18,-1
 159 1109 l 1,19,20
 182 1178 182 1178 276 1236 c 1,21,-1
 334 1255 l 1,0,1
EndSplineSet
Validated: 1
EndChar

StartChar: Q
Encoding: 81 81 52
Width: 1235
GlyphClass: 1
Flags: W
LayerCount: 2
Fore
SplineSet
812 1300 m 1,0,1
 981 1280 981 1280 981 1148 c 1,2,3
 970 913 970 913 633 515 c 1,4,5
 508 429 508 429 508 319 c 0,6,7
 508 20 508 20 392 -127 c 1,8,-1
 384 -127 l 1,9,10
 303 -64 303 -64 303 -28 c 1,11,12
 366 93 366 93 366 239 c 0,13,14
 366 435 366 435 223 774 c 1,15,-1
 223 783 l 1,16,17
 285 889 285 889 285 925 c 1,18,-1
 276 925 l 1,19,-1
 196 916 l 1,20,21
 71 916 71 916 0 1148 c 1,22,23
 0 1229 0 1229 116 1273 c 1,24,25
 238 1166 238 1166 268 1166 c 2,26,-1
 303 1166 l 1,27,-1
 812 1300 l 1,0,1
392 943 m 1,28,-1
 499 587 l 1,29,30
 611 679 611 679 758 934 c 1,31,32
 794 988 794 988 794 1041 c 1,33,34
 779 1077 779 1077 731 1077 c 1,35,36
 392 982 392 982 392 943 c 1,28,-1
EndSplineSet
Validated: 1
EndChar

StartChar: R
Encoding: 82 82 53
Width: 1170
GlyphClass: 1
Flags: W
LayerCount: 2
Fore
SplineSet
172 1224 m 0,0,1
 206 1224 206 1224 332 1075 c 1,2,-1
 353 1075 l 1,3,-1
 839 1137 l 1,4,5
 981 1137 981 1137 1009 425 c 1,6,-1
 1009 351 l 2,7,8
 1009 150 1009 150 860 0 c 1,9,-1
 829 0 l 1,10,11
 765 34 765 34 765 74 c 1,12,13
 786 164 786 164 786 308 c 1,14,15
 816 835 816 835 710 899 c 1,16,-1
 253 856 l 1,17,18
 96 856 96 856 0 1105 c 1,19,20
 0 1223 0 1223 172 1224 c 0,0,1
EndSplineSet
Validated: 33
EndChar

StartChar: S
Encoding: 83 83 54
Width: 1317
GlyphClass: 1
Flags: W
LayerCount: 2
Fore
SplineSet
132 1203 m 1,0,-1
 153 1203 l 1,1,2
 229 1207 229 1207 296 964 c 1,3,4
 839 1098 839 1098 1030 995 c 1,5,6
 1129 922 1129 922 1105 814 c 1,7,8
 1105 515 1105 515 765 71 c 1,9,10
 596 -110 596 -110 542 -110 c 1,11,12
 493 -89 493 -89 489 -67 c 1,13,14
 489 15 489 15 712 283 c 1,15,16
 791 402 791 402 831.5 496.5 c 128,-1,17
 872 591 872 591 856 676 c 1,18,19
 848 815 848 815 743 814 c 2,20,-1
 690 814 l 1,21,22
 382 782 382 782 382 718 c 1,23,24
 287 102 287 102 96 102 c 1,25,26
 45 117 45 117 21 166 c 1,27,28
 170 412 170 412 170 718 c 1,29,30
 0 787 0 787 0 963 c 2,31,-1
 0 995 l 1,32,33
 11 1195 11 1195 132 1203 c 1,0,-1
EndSplineSet
Validated: 33
EndChar

StartChar: T
Encoding: 84 84 55
Width: 1211
GlyphClass: 1
Flags: W
LayerCount: 2
Fore
SplineSet
263 1300 m 1,0,-1
 280 1300 l 2,1,2
 328 1300 328 1300 399 1037 c 1,3,-1
 416 1037 l 1,4,5
 627 1215 627 1215 722 1215 c 1,6,7
 960 1151 960 1151 960 654 c 0,8,9
 960 358 960 358 807 51 c 1,10,11
 738 9 738 9 731 93 c 1,12,13
 782 323 782 323 782 442 c 2,14,-1
 782 518 l 1,15,16
 754 960 754 960 663 960 c 2,17,-1
 654 960 l 2,18,19
 534 960 534 960 442 799 c 1,20,-1
 442 790 l 1,21,-1
 459 348 l 1,22,23
 459 49 459 49 51 0 c 0,24,25
 36 0 36 0 0 59 c 1,26,-1
 0 102 l 2,27,28
 0 175 0 175 170 204 c 1,29,30
 296 250 296 250 280 391 c 1,31,32
 169 994 169 994 102 994 c 1,33,-1
 85 1071 l 1,34,35
 85 1153 85 1153 221 1292 c 1,36,-1
 263 1300 l 1,0,-1
EndSplineSet
Validated: 33
EndChar

StartChar: V
Encoding: 86 86 57
Width: 1649
GlyphClass: 1
Flags: W
LayerCount: 2
Fore
SplineSet
707 1296 m 1,0,1
 849 1276 849 1276 849 1198 c 0,2,3
 849 1014 849 1014 419 689 c 1,4,-1
 419 469 l 2,5,6
 419 416 419 416 459 399 c 1,7,-1
 479 399 l 1,8,9
 907 570 907 570 1118 939 c 1,10,11
 1186 1258 1186 1258 1298 1258 c 2,12,-1
 1358 1258 l 1,13,14
 1428 1230 1428 1230 1428 1148 c 2,15,-1
 1428 1118 l 2,16,17
 1428 908 1428 908 1078 509 c 1,18,19
 833 318 833 318 589 220 c 1,20,-1
 359 10 l 1,21,-1
 320 0 l 1,22,23
 230 49 230 49 230 160 c 1,24,-1
 240 339 l 1,25,26
 215 621 215 621 0 1038 c 1,27,-1
 0 1098 l 1,28,29
 58 1208 58 1208 150 1298 c 1,30,-1
 170 1298 l 2,31,32
 223 1298 223 1298 369 909 c 1,33,-1
 379 909 l 1,34,35
 547 1002 547 1002 657 1208 c 1,36,-1
 707 1296 l 1,0,1
EndSplineSet
Validated: 1
EndChar

StartChar: W
Encoding: 87 87 58
Width: 891
GlyphClass: 1
Flags: W
LayerCount: 2
Fore
SplineSet
303 1241 m 1,0,1
 455 1241 455 1241 559 995 c 1,2,3
 635 697 635 697 635 332 c 2,4,-1
 635 208 l 2,5,6
 635 17 635 17 502 0 c 1,7,-1
 455 38 l 1,8,-1
 464 199 l 1,9,-1
 464 370 l 2,10,11
 464 770 464 770 265 967 c 1,12,13
 218 967 218 967 85 853 c 1,14,-1
 57 853 l 1,15,16
 26 866 26 866 0 929 c 1,17,18
 56 1102 56 1102 246 1232 c 1,19,-1
 303 1241 l 1,0,1
EndSplineSet
Validated: 1
EndChar

StartChar: X
Encoding: 88 88 59
Width: 1235
GlyphClass: 1
Flags: W
LayerCount: 2
Fore
SplineSet
833 1304 m 1,0,1
 973 1256 973 1256 973 1204 c 1,2,3
 873 979 873 979 873 883 c 0,4,5
 873 701 873 701 983 231 c 1,6,7
 1023 97 1023 97 903 120 c 1,8,9
 844 120 844 120 702 662 c 1,10,11
 702 833 702 833 592 833 c 1,12,-1
 341 873 l 1,13,-1
 321 873 l 1,14,15
 281 856 281 856 281 802 c 2,16,-1
 291 632 l 1,17,18
 251 59 251 59 70 0 c 1,19,20
 8 20 8 20 0 50 c 1,21,22
 90 313 90 313 90 592 c 0,23,24
 90 845 90 845 20 1083 c 1,25,26
 49 1204 49 1204 130 1204 c 0,27,28
 159 1204 159 1204 321 1113 c 1,29,30
 572 1045 572 1045 692 1073 c 1,31,32
 731 1304 731 1304 833 1304 c 1,0,1
EndSplineSet
Validated: 33
EndChar

StartChar: Y
Encoding: 89 89 60
Width: 785
GlyphClass: 1
Flags: W
LayerCount: 2
Fore
SplineSet
296 1387 m 1,0,1
 367 1387 367 1387 505 1118 c 1,2,3
 535 1093 535 1093 550 991 c 1,4,-1
 550 946 l 1,5,6
 511 691 511 691 445 691 c 1,7,-1
 445 684 l 1,8,9
 393 684 393 684 393 923 c 1,10,11
 304 1125 304 1125 243 1125 c 1,12,-1
 64 1043 l 1,13,14
 21 1056 21 1056 4 1095 c 1,15,16
 4 1146 4 1146 258 1380 c 1,17,-1
 296 1387 l 1,0,1
EndSplineSet
Validated: 1
EndChar

StartChar: Z
Encoding: 90 90 61
Width: 521
GlyphClass: 1
Flags: W
LayerCount: 2
Fore
SplineSet
141 1213 m 1,0,-1
 157 1213 l 1,1,2
 298 1080 298 1080 298 1007 c 0,3,4
 298 971 298 971 224 810 c 1,5,-1
 215 729 l 1,6,-1
 215 702 l 1,7,-1
 290 218 l 1,8,-1
 298 129 l 1,9,10
 273 30 273 30 224 30 c 0,11,12
 123 30 123 30 108 120 c 1,13,-1
 116 209 l 1,14,15
 91 488 91 488 17 774 c 1,16,-1
 0 908 l 1,17,18
 0 1007 0 1007 141 1213 c 1,0,-1
EndSplineSet
Validated: 1
EndChar

StartChar: bracketleft
Encoding: 91 91 62
Width: 1101
GlyphClass: 1
Flags: W
LayerCount: 2
Fore
SplineSet
904 1321 m 1,0,1
 993 1245 993 1245 993 1143 c 0,2,3
 993 706 993 706 156 27 c 1,4,-1
 105 2 l 1,5,-1
 93 2 l 2,6,7
 4 2 4 2 4 103 c 1,8,9
 339 429 339 429 396 540 c 1,10,11
 169 890 169 890 131 1067 c 1,12,13
 182 1245 182 1245 283 1245 c 2,14,-1
 308 1245 l 1,15,16
 344 1239 344 1239 383.5 1079.5 c 128,-1,17
 423 920 423 920 556 748 c 1,18,-1
 587 801 l 1,19,20
 629 833 629 833 740 1220 c 1,21,22
 820 1321 820 1321 904 1321 c 1,0,1
EndSplineSet
Validated: 1
EndChar

StartChar: asciicircum
Encoding: 94 94 65
Width: 980
GlyphClass: 1
Flags: W
LayerCount: 2
Fore
SplineSet
153 1369 m 0,0,1
 229 1369 229 1369 229 1264 c 2,2,-1
 229 1140 l 2,3,4
 229 1054 229 1054 305 1054 c 2,5,-1
 363 1054 l 1,6,7
 413 1085 413 1085 477 1235 c 1,8,9
 492 1296 492 1296 563 1293 c 0,10,11
 624 1293 624 1293 630 1150 c 1,12,-1
 601 959 l 1,13,-1
 601 854 l 1,14,-1
 601 749 l 1,15,16
 606 547 606 547 716 224 c 1,17,18
 716 42 716 42 229 -110 c 1,19,20
 136 -167 136 -167 86 -167 c 0,21,22
 0 -167 0 -167 0 -52 c 0,23,24
 0 64 0 64 468 195 c 1,25,26
 496 230 496 230 496 262 c 2,27,-1
 496 281 l 1,28,-1
 420 691 l 1,29,-1
 429 854 l 1,30,31
 395 882 395 882 363 882 c 2,32,-1
 267 882 l 2,33,34
 38 882 38 882 38 1111 c 2,35,-1
 38 1121 l 1,36,37
 70 1369 70 1369 153 1369 c 0,0,1
EndSplineSet
Validated: 33
EndChar

StartChar: a
Encoding: 97 97 68
Width: 1406
GlyphClass: 1
Flags: W
LayerCount: 2
Fore
SplineSet
171 1317 m 1,0,1
 244 1317 244 1317 471 964 c 1,2,3
 571 824 571 824 632 824 c 0,4,5
 664 824 664 824 717 1189 c 1,6,7
 750 1274 750 1274 824 1285 c 1,8,9
 926 1285 926 1285 985 1124 c 1,10,11
 985 917 985 917 814 653 c 1,12,13
 1178 338 1178 338 1178 161 c 1,14,15
 1131 21 1131 21 1028 21 c 0,16,17
 1007 23 1007 23 675 396 c 1,18,-1
 428 610 l 1,19,20
 277 610 277 610 257 171 c 1,21,-1
 257 118 l 1,22,23
 249 24 249 24 139 0 c 1,24,25
 75 0 75 0 43 139 c 1,26,27
 107 268 107 268 150 600 c 1,28,29
 186 701 186 701 300 771 c 1,30,31
 64 1049 64 1049 0 1156 c 1,32,33
 0 1242 0 1242 171 1317 c 1,0,1
EndSplineSet
Validated: 1
EndChar

StartChar: b
Encoding: 98 98 69
Width: 1475
GlyphClass: 1
Flags: W
LayerCount: 2
Fore
SplineSet
410 1341 m 1,0,-1
 421 1341 l 2,1,2
 521 1341 521 1341 521 1153 c 1,3,4
 557 1108 557 1108 798 1108 c 0,5,6
 956 1108 956 1108 997 1186 c 1,7,8
 1027 1297 1027 1297 1108 1297 c 2,9,-1
 1119 1297 l 1,10,11
 1186 1274 1186 1274 1186 1208 c 1,12,-1
 1153 887 l 1,13,-1
 1153 765 l 2,14,15
 1153 616 1153 616 1208 321 c 1,16,17
 1168 133 1168 133 1075 133 c 1,18,-1
 709 89 l 1,19,20
 187 44 187 44 44 0 c 1,21,22
 0 17 0 17 0 55 c 1,23,24
 197 288 197 288 266 288 c 2,25,-1
 698 277 l 1,26,-1
 776 277 l 2,27,28
 920 277 920 277 920 355 c 1,29,-1
 898 532 l 1,30,-1
 901 861 l 1,31,-1
 388 853 l 2,32,33
 288 853 288 853 288 986 c 0,34,35
 288 1223 288 1223 410 1341 c 1,0,-1
EndSplineSet
Validated: 1
EndChar

StartChar: c
Encoding: 99 99 70
Width: 1191
GlyphClass: 1
Flags: W
LayerCount: 2
Fore
SplineSet
888 1398 m 0,0,1
 945 1398 945 1398 945 1108 c 1,2,-1
 954 940 l 2,3,4
 954 877 954 877 711 809 c 1,5,6
 561 703 561 703 561 687 c 0,7,8
 562 568 562 568 683 154 c 1,9,10
 683 24 683 24 56 -79 c 1,11,12
 8 -79 8 -79 0 -51 c 1,13,-1
 0 -32 l 2,14,15
 0 141 0 141 178 173 c 1,16,17
 436 249 436 249 449 304 c 1,18,-1
 449 351 l 1,19,20
 387 757 387 757 234 1005 c 1,21,-1
 187 1089 l 1,22,-1
 187 1127 l 1,23,24
 204 1218 204 1218 337 1379 c 1,25,-1
 355 1379 l 2,26,27
 379 1379 379 1379 477 949 c 1,28,-1
 514 949 l 1,29,-1
 711 1033 l 1,30,-1
 729 1276 l 1,31,32
 735 1296 735 1296 776 1342 c 1,33,34
 856 1398 856 1398 888 1398 c 0,0,1
EndSplineSet
Validated: 1
EndChar

StartChar: d
Encoding: 100 100 71
Width: 1077
GlyphClass: 1
Flags: W
LayerCount: 2
Fore
SplineSet
741 1308 m 2,0,-1
 750 1308 l 1,1,2
 798 1293 798 1293 798 1183 c 2,3,-1
 798 1087 l 1,4,-1
 789 692 l 1,5,-1
 789 192 l 1,6,7
 754 10 754 10 712 10 c 1,8,-1
 673 0 l 1,9,10
 558 0 558 0 558 144 c 2,11,-1
 558 164 l 1,12,-1
 577 779 l 1,13,-1
 577 827 l 1,14,-1
 558 846 l 1,15,16
 363 846 363 846 67 726 c 1,17,18
 15 717 15 717 0 856 c 1,19,20
 40 1289 40 1289 125 1289 c 1,21,22
 260 1256 260 1256 260 1135 c 1,23,24
 221 955 221 955 298 971 c 0,25,26
 595 1025 595 1025 596 1039 c 0,27,28
 596 1308 596 1308 741 1308 c 2,0,-1
EndSplineSet
Validated: 33
EndChar

StartChar: f
Encoding: 102 102 73
Width: 1649
GlyphClass: 1
Flags: W
LayerCount: 2
Fore
SplineSet
707 1296 m 1,0,1
 849 1276 849 1276 849 1198 c 0,2,3
 849 1014 849 1014 419 689 c 1,4,-1
 419 469 l 2,5,6
 419 416 419 416 459 399 c 1,7,-1
 479 399 l 1,8,9
 907 570 907 570 1118 939 c 1,10,11
 1186 1258 1186 1258 1298 1258 c 2,12,-1
 1358 1258 l 1,13,14
 1428 1230 1428 1230 1428 1148 c 2,15,-1
 1428 1118 l 2,16,17
 1428 908 1428 908 1078 509 c 1,18,19
 833 318 833 318 589 220 c 1,20,-1
 359 10 l 1,21,-1
 320 0 l 1,22,23
 230 49 230 49 230 160 c 1,24,-1
 240 339 l 1,25,26
 215 621 215 621 0 1038 c 1,27,-1
 0 1098 l 1,28,29
 58 1208 58 1208 150 1298 c 1,30,-1
 170 1298 l 2,31,32
 223 1298 223 1298 369 909 c 1,33,-1
 379 909 l 1,34,35
 547 1002 547 1002 657 1208 c 1,36,-1
 707 1296 l 1,0,1
EndSplineSet
Validated: 1
EndChar

StartChar: g
Encoding: 103 103 74
Width: 1678
GlyphClass: 1
Flags: W
LayerCount: 2
Fore
SplineSet
554 1300 m 1,0,1
 673 1300 673 1300 757 893 c 1,2,3
 908 564 908 564 1097 486 c 1,4,5
 1208 393 1208 393 1413 283 c 1,6,7
 1458 235 1458 235 1458 170 c 0,8,9
 1458 11 1458 11 1345 11 c 2,10,-1
 1334 11 l 2,11,12
 1204 11 1204 11 678 475 c 1,13,14
 540 475 540 475 249 147 c 1,15,16
 134 0 134 0 102 0 c 1,17,18
 32 -20 32 -20 0 57 c 1,19,20
 0 171 0 171 407 554 c 1,21,22
 502 616 502 616 543 644 c 1,23,24
 384 1115 384 1115 384 1187 c 0,25,26
 384 1273 384 1273 554 1300 c 1,0,1
EndSplineSet
Validated: 33
EndChar

StartChar: h
Encoding: 104 104 75
Width: 1702
GlyphClass: 1
Flags: W
LayerCount: 2
Fore
SplineSet
1292 1430 m 0,0,1
 1380 1430 1380 1430 1409 1239 c 1,2,-1
 1345 922 l 1,3,-1
 1356 667 l 1,4,5
 1406 341 1406 341 1462 148 c 1,6,-1
 1462 106 l 1,7,8
 1448 0 1448 0 1356 0 c 0,9,10
 1182 0 1182 0 1112 678 c 1,11,12
 1112 858 1112 858 1050 866 c 2,13,-1
 922 879 l 1,14,15
 763 739 763 739 763 466 c 2,16,-1
 763 350 l 1,17,-1
 773 201 l 1,18,19
 747 42 747 42 646 42 c 0,20,21
 587 42 587 42 561 159 c 1,22,-1
 583 466 l 1,23,24
 583 794 583 794 763 922 c 1,25,-1
 763 943 l 2,26,27
 763 977 763 977 530 1006 c 1,28,29
 340 1051 340 1051 148 879 c 1,30,31
 89 845 89 845 0 975 c 1,32,33
 0 1102 0 1102 297 1271 c 1,34,35
 419 1332 419 1332 551 1292 c 1,36,-1
 1059 1102 l 1,37,38
 1165 1102 1165 1102 1165 1250 c 1,39,40
 1198 1430 1198 1430 1292 1430 c 0,0,1
EndSplineSet
Validated: 33
EndChar

StartChar: j
Encoding: 106 106 77
Width: 1430
GlyphClass: 1
Flags: W
LayerCount: 2
Fore
SplineSet
124 1308 m 2,0,-1
 153 1308 l 2,1,2
 232 1308 232 1308 306 812 c 1,3,4
 351 239 351 239 420 239 c 2,5,-1
 496 239 l 1,6,7
 694 283 694 283 926 487 c 1,8,-1
 926 516 l 1,9,10
 870 831 870 831 802 831 c 0,11,12
 720 831 720 831 468 544 c 1,13,-1
 430 535 l 1,14,15
 401 535 401 535 372 592 c 1,16,17
 522 944 522 944 754 1041 c 1,18,-1
 945 1088 l 1,19,20
 1045 996 1045 996 1127 621 c 1,21,22
 1155 544 1155 544 1155 516 c 0,23,24
 1155 337 1155 337 974 286 c 1,25,26
 466 0 466 0 430 0 c 0,27,28
 266 0 266 0 210 229 c 1,29,30
 165 326 165 326 124 802 c 1,31,-1
 0 1203 l 1,32,-1
 0 1213 l 1,33,34
 55 1308 55 1308 124 1308 c 2,0,-1
EndSplineSet
Validated: 1
EndChar

StartChar: k
Encoding: 107 107 78
Width: 980
GlyphClass: 1
Flags: W
LayerCount: 2
Fore
SplineSet
153 1369 m 0,0,1
 229 1369 229 1369 229 1264 c 2,2,-1
 229 1140 l 2,3,4
 229 1054 229 1054 305 1054 c 2,5,-1
 363 1054 l 1,6,7
 413 1085 413 1085 477 1235 c 1,8,9
 492 1296 492 1296 563 1293 c 0,10,11
 624 1293 624 1293 630 1150 c 1,12,-1
 601 959 l 1,13,-1
 601 854 l 1,14,-1
 601 749 l 1,15,16
 606 547 606 547 716 224 c 1,17,18
 716 42 716 42 229 -110 c 1,19,20
 136 -167 136 -167 86 -167 c 0,21,22
 0 -167 0 -167 0 -52 c 0,23,24
 0 64 0 64 468 195 c 1,25,26
 496 230 496 230 496 262 c 2,27,-1
 496 281 l 1,28,-1
 420 691 l 1,29,-1
 429 854 l 1,30,31
 395 882 395 882 363 882 c 2,32,-1
 267 882 l 2,33,34
 38 882 38 882 38 1111 c 2,35,-1
 38 1121 l 1,36,37
 70 1369 70 1369 153 1369 c 0,0,1
EndSplineSet
Validated: 33
EndChar

StartChar: l
Encoding: 108 108 79
Width: 865
GlyphClass: 1
Flags: W
LayerCount: 2
Fore
SplineSet
136 1852 m 1,0,1
 278 1852 278 1852 314 783 c 1,2,-1
 317 406 l 1,3,4
 328 291 328 291 403 267 c 1,5,6
 448 221 448 221 590 151 c 0,7,8
 612 136 612 136 608 97 c 1,9,10
 483 -314 483 -314 296 -428 c 1,11,12
 229 -428 229 -428 207 -365 c 1,13,14
 207 -327 207 -327 332 -214 c 1,15,16
 429 -52 429 -52 376 -9 c 1,17,18
 339 42 339 42 207 124 c 1,19,20
 180 158 180 158 189 204 c 1,21,22
 189 579 189 579 141 1251 c 1,23,-1
 118 935 l 2,24,25
 118 881 118 881 56 855 c 1,26,27
 11 867 11 867 11 917 c 2,28,-1
 11 1059 l 1,29,-1
 11 1095 l 2,30,31
 11 1843 11 1843 91 1843 c 1,32,-1
 136 1852 l 1,0,1
EndSplineSet
Validated: 33
EndChar

StartChar: m
Encoding: 109 109 80
Width: 1292
GlyphClass: 1
Flags: W
LayerCount: 2
Fore
SplineSet
287 1406 m 1,0,-1
 322 1406 l 1,1,2
 444 1209 444 1209 573 1209 c 2,3,-1
 591 1209 l 2,4,5
 688 1209 688 1209 770 1325 c 1,6,7
 823 1353 823 1353 860 1325 c 1,8,9
 860 1088 860 1088 1021 358 c 1,10,11
 1021 251 1021 251 716 152 c 1,12,13
 198 0 198 0 152 0 c 1,14,15
 81 7 81 7 81 72 c 0,16,17
 81 246 81 246 600 331 c 1,18,19
 849 408 849 408 851 439 c 2,20,-1
 851 475 l 1,21,22
 752 884 752 884 690 1018 c 1,23,-1
 600 994 l 1,24,-1
 331 654 l 1,25,26
 259 549 259 549 77 472 c 1,27,28
 4 478 4 478 0 546 c 1,29,30
 300 769 300 769 433 987 c 1,31,32
 397 988 397 988 308 1069 c 1,33,34
 215 1136 215 1136 215 1281 c 1,35,36
 249 1394 249 1394 287 1406 c 1,0,-1
EndSplineSet
Validated: 33
EndChar

StartChar: n
Encoding: 110 110 81
Width: 899
GlyphClass: 1
Flags: W
LayerCount: 2
Fore
SplineSet
482 1312 m 0,0,1
 549 1312 549 1312 662 1149 c 1,2,-1
 662 1131 l 1,3,4
 619 922 619 922 611 805 c 1,5,6
 619 660 619 660 671 435 c 1,7,8
 671 259 671 259 267 168 c 1,9,10
 111 99 111 99 60 99 c 1,11,12
 0 123 0 123 0 194 c 0,13,14
 0 287 0 287 430 461 c 1,15,-1
 447 512 l 1,16,-1
 447 564 l 1,17,-1
 404 977 l 1,18,19
 404 1312 404 1312 482 1312 c 0,0,1
EndSplineSet
Validated: 1
EndChar

StartChar: p
Encoding: 112 112 83
Width: 1139
GlyphClass: 1
Flags: W
LayerCount: 2
Fore
SplineSet
642 1255 m 1,0,1
 727 1255 727 1255 866 360 c 1,2,-1
 866 350 l 2,3,4
 866 146 866 146 691 146 c 1,5,6
 549 97 549 97 107 0 c 1,7,-1
 78 0 l 2,8,9
 20 0 20 0 0 58 c 1,10,11
 0 163 0 163 506 311 c 1,12,13
 671 337 671 337 671 418 c 1,14,15
 545 884 545 884 516 886 c 1,16,-1
 292 691 l 1,17,18
 231 711 231 711 224 740 c 1,19,-1
 224 779 l 1,20,-1
 360 954 l 1,21,-1
 467 1109 l 1,22,23
 490 1109 490 1109 584 1236 c 1,24,-1
 642 1255 l 1,0,1
EndSplineSet
Validated: 1
EndChar

StartChar: q
Encoding: 113 113 84
Width: 1235
GlyphClass: 1
Flags: W
LayerCount: 2
Fore
SplineSet
812 1300 m 1,0,1
 981 1280 981 1280 981 1148 c 1,2,3
 970 913 970 913 633 515 c 1,4,5
 508 429 508 429 508 319 c 0,6,7
 508 20 508 20 392 -127 c 1,8,-1
 384 -127 l 1,9,10
 303 -64 303 -64 303 -28 c 1,11,12
 366 93 366 93 366 239 c 0,13,14
 366 435 366 435 223 774 c 1,15,-1
 223 783 l 1,16,17
 285 889 285 889 285 925 c 1,18,-1
 276 925 l 1,19,-1
 196 916 l 1,20,21
 71 916 71 916 0 1148 c 1,22,23
 0 1229 0 1229 116 1273 c 1,24,25
 238 1166 238 1166 268 1166 c 2,26,-1
 303 1166 l 1,27,-1
 812 1300 l 1,0,1
392 943 m 1,28,-1
 499 587 l 1,29,30
 611 679 611 679 758 934 c 1,31,32
 794 988 794 988 794 1041 c 1,33,34
 779 1077 779 1077 731 1077 c 1,35,36
 392 982 392 982 392 943 c 1,28,-1
EndSplineSet
Validated: 1
EndChar

StartChar: r
Encoding: 114 114 85
Width: 1170
GlyphClass: 1
Flags: W
LayerCount: 2
Fore
SplineSet
172 1224 m 0,0,1
 206 1224 206 1224 332 1075 c 1,2,-1
 353 1075 l 1,3,-1
 839 1137 l 1,4,5
 981 1137 981 1137 1009 425 c 1,6,-1
 1009 351 l 2,7,8
 1009 150 1009 150 860 0 c 1,9,-1
 829 0 l 1,10,11
 765 34 765 34 765 74 c 1,12,13
 786 164 786 164 786 308 c 1,14,15
 816 835 816 835 710 899 c 1,16,-1
 253 856 l 1,17,18
 96 856 96 856 0 1105 c 1,19,20
 0 1223 0 1223 172 1224 c 0,0,1
EndSplineSet
Validated: 33
EndChar

StartChar: s
Encoding: 115 115 86
Width: 1317
GlyphClass: 1
Flags: W
LayerCount: 2
Fore
SplineSet
132 1203 m 1,0,-1
 153 1203 l 1,1,2
 229 1207 229 1207 296 964 c 1,3,4
 839 1098 839 1098 1030 995 c 1,5,6
 1129 922 1129 922 1105 814 c 1,7,8
 1105 515 1105 515 765 71 c 1,9,10
 596 -110 596 -110 542 -110 c 1,11,12
 493 -89 493 -89 489 -67 c 1,13,14
 489 15 489 15 712 283 c 1,15,16
 791 402 791 402 831.5 496.5 c 128,-1,17
 872 591 872 591 856 676 c 1,18,19
 848 815 848 815 743 814 c 2,20,-1
 690 814 l 1,21,22
 382 782 382 782 382 718 c 1,23,24
 287 102 287 102 96 102 c 1,25,26
 45 117 45 117 21 166 c 1,27,28
 170 412 170 412 170 718 c 1,29,30
 0 787 0 787 0 963 c 2,31,-1
 0 995 l 1,32,33
 11 1195 11 1195 132 1203 c 1,0,-1
EndSplineSet
Validated: 33
EndChar

StartChar: t
Encoding: 116 116 87
Width: 1211
GlyphClass: 1
Flags: W
LayerCount: 2
Fore
SplineSet
263 1300 m 1,0,-1
 280 1300 l 2,1,2
 328 1300 328 1300 399 1037 c 1,3,-1
 416 1037 l 1,4,5
 627 1215 627 1215 722 1215 c 1,6,7
 960 1151 960 1151 960 654 c 0,8,9
 960 358 960 358 807 51 c 1,10,11
 738 9 738 9 731 93 c 1,12,13
 782 323 782 323 782 442 c 2,14,-1
 782 518 l 1,15,16
 754 960 754 960 663 960 c 2,17,-1
 654 960 l 2,18,19
 534 960 534 960 442 799 c 1,20,-1
 442 790 l 1,21,-1
 459 348 l 1,22,23
 459 49 459 49 51 0 c 0,24,25
 36 0 36 0 0 59 c 1,26,-1
 0 102 l 2,27,28
 0 175 0 175 170 204 c 1,29,30
 296 250 296 250 280 391 c 1,31,32
 169 994 169 994 102 994 c 1,33,-1
 85 1071 l 1,34,35
 85 1153 85 1153 221 1292 c 1,36,-1
 263 1300 l 1,0,-1
EndSplineSet
Validated: 33
EndChar

StartChar: v
Encoding: 118 118 89
Width: 1649
GlyphClass: 1
Flags: W
LayerCount: 2
Fore
SplineSet
707 1296 m 1,0,1
 849 1276 849 1276 849 1198 c 0,2,3
 849 1014 849 1014 419 689 c 1,4,-1
 419 469 l 2,5,6
 419 416 419 416 459 399 c 1,7,-1
 479 399 l 1,8,9
 907 570 907 570 1118 939 c 1,10,11
 1186 1258 1186 1258 1298 1258 c 2,12,-1
 1358 1258 l 1,13,14
 1428 1230 1428 1230 1428 1148 c 2,15,-1
 1428 1118 l 2,16,17
 1428 908 1428 908 1078 509 c 1,18,19
 833 318 833 318 589 220 c 1,20,-1
 359 10 l 1,21,-1
 320 0 l 1,22,23
 230 49 230 49 230 160 c 1,24,-1
 240 339 l 1,25,26
 215 621 215 621 0 1038 c 1,27,-1
 0 1098 l 1,28,29
 58 1208 58 1208 150 1298 c 1,30,-1
 170 1298 l 2,31,32
 223 1298 223 1298 369 909 c 1,33,-1
 379 909 l 1,34,35
 547 1002 547 1002 657 1208 c 1,36,-1
 707 1296 l 1,0,1
EndSplineSet
Validated: 1
EndChar

StartChar: w
Encoding: 119 119 90
Width: 891
GlyphClass: 1
Flags: W
LayerCount: 2
Fore
SplineSet
303 1241 m 1,0,1
 455 1241 455 1241 559 995 c 1,2,3
 635 697 635 697 635 332 c 2,4,-1
 635 208 l 2,5,6
 635 17 635 17 502 0 c 1,7,-1
 455 38 l 1,8,-1
 464 199 l 1,9,-1
 464 370 l 2,10,11
 464 770 464 770 265 967 c 1,12,13
 218 967 218 967 85 853 c 1,14,-1
 57 853 l 1,15,16
 26 866 26 866 0 929 c 1,17,18
 56 1102 56 1102 246 1232 c 1,19,-1
 303 1241 l 1,0,1
EndSplineSet
Validated: 1
EndChar

StartChar: x
Encoding: 120 120 91
Width: 1235
GlyphClass: 1
Flags: W
LayerCount: 2
Fore
SplineSet
833 1304 m 1,0,1
 973 1256 973 1256 973 1204 c 1,2,3
 873 979 873 979 873 883 c 0,4,5
 873 701 873 701 983 231 c 1,6,7
 1023 97 1023 97 903 120 c 1,8,9
 844 120 844 120 702 662 c 1,10,11
 702 833 702 833 592 833 c 1,12,-1
 341 873 l 1,13,-1
 321 873 l 1,14,15
 281 856 281 856 281 802 c 2,16,-1
 291 632 l 1,17,18
 251 59 251 59 70 0 c 1,19,20
 8 20 8 20 0 50 c 1,21,22
 90 313 90 313 90 592 c 0,23,24
 90 845 90 845 20 1083 c 1,25,26
 49 1204 49 1204 130 1204 c 0,27,28
 159 1204 159 1204 321 1113 c 1,29,30
 572 1045 572 1045 692 1073 c 1,31,32
 731 1304 731 1304 833 1304 c 1,0,1
EndSplineSet
Validated: 33
EndChar

StartChar: y
Encoding: 121 121 92
Width: 785
GlyphClass: 1
Flags: W
LayerCount: 2
Fore
SplineSet
296 1387 m 1,0,1
 367 1387 367 1387 505 1118 c 1,2,3
 535 1093 535 1093 550 991 c 1,4,-1
 550 946 l 1,5,6
 511 691 511 691 445 691 c 1,7,-1
 445 684 l 1,8,9
 393 684 393 684 393 923 c 1,10,11
 304 1125 304 1125 243 1125 c 1,12,-1
 64 1043 l 1,13,14
 21 1056 21 1056 4 1095 c 1,15,16
 4 1146 4 1146 258 1380 c 1,17,-1
 296 1387 l 1,0,1
EndSplineSet
Validated: 1
EndChar

StartChar: z
Encoding: 122 122 93
Width: 521
GlyphClass: 1
Flags: W
LayerCount: 2
Fore
SplineSet
141 1213 m 1,0,-1
 157 1213 l 1,1,2
 298 1080 298 1080 298 1007 c 0,3,4
 298 971 298 971 224 810 c 1,5,-1
 215 729 l 1,6,-1
 215 702 l 1,7,-1
 290 218 l 1,8,-1
 298 129 l 1,9,10
 273 30 273 30 224 30 c 0,11,12
 123 30 123 30 108 120 c 1,13,-1
 116 209 l 1,14,15
 91 488 91 488 17 774 c 1,16,-1
 0 908 l 1,17,18
 0 1007 0 1007 141 1213 c 1,0,-1
EndSplineSet
Validated: 1
EndChar

StartChar: braceleft
Encoding: 123 123 94
Width: 1101
GlyphClass: 1
Flags: W
LayerCount: 2
Fore
SplineSet
904 1321 m 1,0,1
 993 1245 993 1245 993 1143 c 0,2,3
 993 706 993 706 156 27 c 1,4,-1
 105 2 l 1,5,-1
 93 2 l 2,6,7
 4 2 4 2 4 103 c 1,8,9
 339 429 339 429 396 540 c 1,10,11
 169 890 169 890 131 1067 c 1,12,13
 182 1245 182 1245 283 1245 c 2,14,-1
 308 1245 l 1,15,16
 344 1239 344 1239 383.5 1079.5 c 128,-1,17
 423 920 423 920 556 748 c 1,18,-1
 587 801 l 1,19,20
 629 833 629 833 740 1220 c 1,21,22
 820 1321 820 1321 904 1321 c 1,0,1
EndSplineSet
Validated: 1
EndChar

StartChar: uni05D0
Encoding: 1488 1488 502
Width: 1226
GlyphClass: 2
Flags: W
LayerCount: 2
Fore
SplineSet
171 1317 m 1,0,1
 244 1317 244 1317 471 964 c 1,2,3
 571 824 571 824 632 824 c 0,4,5
 664 824 664 824 717 1189 c 1,6,7
 750 1274 750 1274 824 1285 c 1,8,9
 926 1285 926 1285 985 1124 c 1,10,11
 985 917 985 917 814 653 c 1,12,13
 1178 338 1178 338 1178 161 c 1,14,15
 1131 21 1131 21 1028 21 c 0,16,17
 1007 23 1007 23 675 396 c 1,18,-1
 428 610 l 1,19,20
 277 610 277 610 257 171 c 1,21,-1
 257 118 l 1,22,23
 249 24 249 24 139 0 c 1,24,25
 75 0 75 0 43 139 c 1,26,27
 107 268 107 268 150 600 c 1,28,29
 186 701 186 701 300 771 c 1,30,31
 64 1049 64 1049 0 1156 c 1,32,33
 0 1242 0 1242 171 1317 c 1,0,1
EndSplineSet
Validated: 1
EndChar

StartChar: uni05D1
Encoding: 1489 1489 503
Width: 1475
GlyphClass: 2
Flags: W
LayerCount: 2
Fore
SplineSet
413 1272 m 1,0,-1
 424 1272 l 2,1,2
 524 1272 524 1272 524 1084 c 1,3,4
 560 1039 560 1039 801 1039 c 0,5,6
 959 1039 959 1039 1000 1117 c 1,7,8
 1030 1228 1030 1228 1111 1228 c 2,9,-1
 1122 1228 l 1,10,11
 1189 1205 1189 1205 1189 1139 c 1,12,-1
 1156 818 l 1,13,-1
 1156 696 l 2,14,15
 1156 599 1156 599 1208 321 c 1,16,17
 1168 133 1168 133 1075 133 c 1,18,-1
 709 89 l 1,19,20
 187 44 187 44 44 0 c 1,21,22
 0 17 0 17 0 55 c 1,23,24
 197.778510675 289.737121256 197.778510675 289.737121256 266 288 c 2,25,-1
 698 277 l 1,26,-1
 776 277 l 2,27,28
 920 277 920 277 920 355 c 1,29,-1
 898 532 l 1,30,-1
 904 792 l 1,31,-1
 391 784 l 2,32,33
 291 782 291 782 291 917 c 0,34,35
 291 1154 291 1154 413 1272 c 1,0,-1
EndSplineSet
Validated: 524321
EndChar

StartChar: uni05D2
Encoding: 1490 1490 504
Width: 1678
GlyphClass: 2
Flags: W
LayerCount: 2
Fore
SplineSet
554 1300 m 1,0,1
 673 1300 673 1300 757 893 c 1,2,3
 908 564 908 564 1097 486 c 1,4,5
 1208 393 1208 393 1413 283 c 1,6,7
 1458 235 1458 235 1458 170 c 0,8,9
 1458 11 1458 11 1345 11 c 2,10,-1
 1334 11 l 2,11,12
 1204 11 1204 11 678 475 c 1,13,14
 540 475 540 475 249 147 c 1,15,16
 134 0 134 0 102 0 c 1,17,18
 32 -20 32 -20 0 57 c 1,19,20
 0 171 0 171 407 554 c 1,21,22
 502 616 502 616 543 644 c 1,23,24
 384 1115 384 1115 384 1187 c 0,25,26
 384 1273 384 1273 554 1300 c 1,0,1
EndSplineSet
Validated: 33
EndChar

StartChar: uni05D3
Encoding: 1491 1491 505
Width: 1077
GlyphClass: 2
Flags: W
LayerCount: 2
Fore
SplineSet
741 1308 m 2,0,-1
 750 1308 l 1,1,2
 798 1293 798 1293 798 1183 c 2,3,-1
 798 1087 l 1,4,-1
 789 692 l 1,5,-1
 789 192 l 1,6,7
 754 10 754 10 712 10 c 1,8,-1
 673 0 l 1,9,10
 558 0 558 0 558 144 c 2,11,-1
 558 164 l 1,12,-1
 577 779 l 1,13,-1
 577 827 l 1,14,-1
 558 846 l 1,15,16
 363 846 363 846 67 726 c 1,17,18
 15 717 15 717 0 856 c 1,19,20
 40 1289 40 1289 125 1289 c 1,21,22
 260 1256 260 1256 260 1135 c 1,23,24
 221 955 221 955 298 971 c 0,25,26
 595 1025 595 1025 596 1039 c 0,27,28
 596 1308 596 1308 741 1308 c 2,0,-1
EndSplineSet
Validated: 33
EndChar

StartChar: uni05D4
Encoding: 1492 1492 506
Width: 1702
GlyphClass: 2
Flags: W
LayerCount: 2
Fore
SplineSet
1251 1089 m 0,0,1
 1339 1089 1339 1089 1368 898 c 1,2,-1
 1304 581 l 1,3,-1
 1315 326 l 1,4,5
 1388 237 1388 237 1462 148 c 1,6,-1
 1462 106 l 1,7,8
 1448 0 1448 0 1356 0 c 0,9,10
 1114 0 1114 0 1081 268 c 5,11,12
 1081 449.703125 1081 449.703125 1019 456 c 6,13,-1
 891 469 l 5,14,15
 773 445 773 445 773 397 c 6,16,-1
 773 281 l 5,17,-1
 773 201 l 1,18,19
 747 42 747 42 646 42 c 0,20,21
 587 42 587 42 561 159 c 1,22,-1
 583 466 l 1,23,24
 652 524 652 524 722 581 c 1,25,-1
 722 602 l 2,26,27
 722 636 722 636 489 665 c 1,28,29
 299 710 299 710 107 538 c 1,30,31
 48 504 48 504 -41 634 c 1,32,33
 -41 761 -41 761 256 930 c 1,34,35
 378 991 378 991 510 951 c 1,36,-1
 1018 761 l 1,37,38
 1124 761 1124 761 1124 909 c 1,39,40
 1157 1089 1157 1089 1251 1089 c 0,0,1
EndSplineSet
Validated: 524321
EndChar

StartChar: uni05D5
Encoding: 1493 1493 507
Width: 891
GlyphClass: 2
Flags: W
LayerCount: 2
Fore
SplineSet
303 1241 m 1,0,1
 455 1241 455 1241 559 995 c 1,2,3
 635 697 635 697 635 332 c 2,4,-1
 635 208 l 2,5,6
 635 17 635 17 502 0 c 1,7,-1
 455 38 l 1,8,-1
 464 199 l 1,9,-1
 464 370 l 2,10,11
 464 770 464 770 265 967 c 1,12,13
 218 967 218 967 85 853 c 1,14,-1
 57 853 l 1,15,16
 26 866 26 866 0 929 c 1,17,18
 56 1102 56 1102 246 1232 c 1,19,-1
 303 1241 l 1,0,1
EndSplineSet
Validated: 1
EndChar

StartChar: uni05D6
Encoding: 1494 1494 508
Width: 521
GlyphClass: 2
Flags: W
LayerCount: 2
Fore
SplineSet
141 1213 m 1,0,-1
 157 1213 l 1,1,2
 298 1080 298 1080 298 1007 c 0,3,4
 298 971 298 971 224 810 c 1,5,-1
 215 729 l 1,6,-1
 215 702 l 1,7,-1
 290 218 l 1,8,-1
 298 129 l 1,9,10
 273 30 273 30 224 30 c 0,11,12
 123 30 123 30 108 120 c 1,13,-1
 116 209 l 1,14,15
 91 488 91 488 17 774 c 1,16,-1
 0 908 l 1,17,18
 0 1007 0 1007 141 1213 c 1,0,-1
EndSplineSet
Validated: 1
EndChar

StartChar: uni05D7
Encoding: 1495 1495 509
Width: 1235
GlyphClass: 2
Flags: W
LayerCount: 2
Fore
SplineSet
833 1304 m 1,0,1
 973 1256 973 1256 973 1204 c 1,2,3
 873 979 873 979 873 883 c 0,4,5
 873 701 873 701 983 231 c 1,6,7
 1023 97 1023 97 903 120 c 1,8,9
 844 120 844 120 702 662 c 1,10,11
 702 833 702 833 592 833 c 1,12,-1
 341 873 l 1,13,-1
 321 873 l 1,14,15
 281 856 281 856 281 802 c 2,16,-1
 291 632 l 1,17,18
 251 59 251 59 70 0 c 1,19,20
 8 20 8 20 0 50 c 1,21,22
 90 313 90 313 90 592 c 0,23,24
 90 845 90 845 20 1083 c 1,25,26
 49 1204 49 1204 130 1204 c 0,27,28
 159 1204 159 1204 321 1113 c 1,29,30
 572 1045 572 1045 692 1073 c 1,31,32
 731 1304 731 1304 833 1304 c 1,0,1
EndSplineSet
Validated: 33
EndChar

StartChar: uni05D8
Encoding: 1496 1496 510
Width: 1430
GlyphClass: 2
Flags: W
LayerCount: 2
Fore
SplineSet
124 1308 m 2,0,-1
 153 1308 l 2,1,2
 232 1308 232 1308 306 812 c 1,3,4
 351 239 351 239 420 239 c 2,5,-1
 496 239 l 1,6,7
 694 283 694 283 926 487 c 1,8,-1
 926 516 l 1,9,10
 870 831 870 831 802 831 c 0,11,12
 720 831 720 831 468 544 c 1,13,-1
 430 535 l 1,14,15
 401 535 401 535 372 592 c 1,16,17
 522 944 522 944 754 1041 c 1,18,-1
 945 1088 l 1,19,20
 1045 996 1045 996 1127 621 c 1,21,22
 1155 544 1155 544 1155 516 c 0,23,24
 1155 337 1155 337 974 286 c 1,25,26
 466 0 466 0 430 0 c 0,27,28
 266 0 266 0 210 229 c 1,29,30
 165 326 165 326 124 802 c 1,31,-1
 0 1203 l 1,32,-1
 0 1213 l 1,33,34
 55 1308 55 1308 124 1308 c 2,0,-1
EndSplineSet
Validated: 1
EndChar

StartChar: uni05D9
Encoding: 1497 1497 511
Width: 995
GlyphClass: 2
Flags: W
LayerCount: 2
Fore
SplineSet
30 547 m 5,0,-1
 360 1024 l 1,1,-1
 498 1024 l 1,2,-1
 954 481 l 1,3,-1
 948 253 l 1,4,-1
 552 742 l 1,5,-1
 363 733 l 1,6,-1
 42 316 l 1,7,-1
 30 547 l 5,0,-1
EndSplineSet
Validated: 1
EndChar

StartChar: uni05DA
Encoding: 1498 1498 512
Width: 980
GlyphClass: 2
Flags: W
LayerCount: 2
Fore
SplineSet
153 1369 m 0,0,1
 229 1369 229 1369 229 1264 c 2,2,-1
 229 1140 l 2,3,4
 229 1054 229 1054 305 1054 c 2,5,-1
 362 1054 l 1,6,7
 413 1085 413 1085 477 1235 c 1,8,9
 492 1295 492 1295 563 1293 c 0,10,11
 624 1292 624 1292 630 1150 c 1,12,-1
 601 959 l 1,13,-1
 601 854 l 1,14,-1
 601 749 l 1,15,16
 607 333 607 333 721 0 c 5,17,18
 721 -182 721 -182 482 -285 c 5,19,20
 18 -562 18 -562 18 -562 c 4,21,22
 -68 -562 -68 -562 -40 -468 c 5,23,24
 -40 -293 -40 -293 472 -29 c 5,25,26
 501 6 501 6 501 38 c 6,27,-1
 501 57 l 5,28,-1
 420 691 l 1,29,-1
 429 854 l 1,30,31
 394 882 394 882 362 882 c 2,32,-1
 267 882 l 2,33,34
 38 882 38 882 38 1111 c 2,35,-1
 38 1121 l 1,36,37
 70 1369 70 1369 153 1369 c 0,0,1
EndSplineSet
Validated: 524321
EndChar

StartChar: uni05DB
Encoding: 1499 1499 513
Width: 980
GlyphClass: 2
Flags: W
LayerCount: 2
Fore
SplineSet
153 1369 m 0,0,1
 229 1369 229 1369 229 1264 c 2,2,-1
 229 1140 l 2,3,4
 229 1054 229 1054 305 1054 c 2,5,-1
 363 1054 l 1,6,7
 413 1085 413 1085 477 1235 c 1,8,9
 492 1295 492 1295 563 1293 c 0,10,11
 624 1292 624 1292 630 1150 c 1,12,-1
 601 959 l 1,13,-1
 601 854 l 1,14,-1
 601 749 l 1,15,16
 608 621 608 621 686 391 c 1,17,18
 686 212 686 212 281 84 c 1,19,20
 188 27 188 27 138 27 c 0,21,22
 52 27 52 27 52 142 c 0,23,24
 52 232 52 232 468 349 c 1,25,26
 482 345 482 345 482 345 c 2,27,-1
 482 364 l 1,28,-1
 420 691 l 1,29,-1
 429 854 l 1,30,31
 395 882 395 882 363 882 c 2,32,-1
 267 882 l 2,33,34
 38 882 38 882 38 1111 c 2,35,-1
 38 1121 l 1,36,37
 70 1369 70 1369 153 1369 c 0,0,1
EndSplineSet
Validated: 524321
EndChar

StartChar: uni05DC
Encoding: 1500 1500 514
Width: 865
GlyphClass: 2
Flags: W
LayerCount: 2
Fore
SplineSet
110 3080 m 1,0,1
 299 3080 299 3080 338 1175 c 1,2,-1
 325 1066 l 1,3,4
 336 951 336 951 411 927 c 1,5,6
 550 948 550 948 654 891 c 0,7,8
 676 879 676 879 672 837 c 1,9,10
 530 368 530 368 304 232 c 1,11,12
 237 232 237 232 215 295 c 1,13,14
 215 333 215 333 340 446 c 1,15,16
 529 768 529 768 507 786 c 1,17,18
 361 785 361 785 215 784 c 1,19,20
 188 818 188 818 197 864 c 1,21,22
 197 1724 197 1724 146 2438 c 1,23,-1
 128 1956 l 2,24,25
 125.945205479 1900.97716895 125.945205479 1900.97716895 66 1876 c 1,26,27
 21 1888 21 1888 21 1938 c 2,28,-1
 21 2080 l 1,29,-1
 21 2116 l 2,30,31
 21 3071 21 3071 65 3071 c 1,32,-1
 110 3080 l 1,0,1
EndSplineSet
Validated: 524321
EndChar

StartChar: uni05DD
Encoding: 1501 1501 515
Width: 1175
GlyphClass: 2
Flags: W
LayerCount: 2
Fore
SplineSet
539 1264 m 1,0,1
 696 1251 696 1251 749 1144 c 1,2,3
 849 1059 849 1059 898 612 c 1,4,-1
 914 365 l 2,5,6
 934 71 934 71 644 51 c 1,7,8
 575 31 575 31 404 -69 c 1,9,-1
 383 -209 l 1,10,-1
 368 -209 l 1,11,12
 240 -238 240 -238 240 -129 c 0,13,14
 240 318 240 318 315 500 c 1,15,-1
 330 800 l 1,16,17
 330 889 330 889 210 889 c 0,18,19
 40 889 40 889 0 1084 c 1,20,21
 30 1234 30 1234 135 1234 c 0,22,23
 166 1233 166 1233 285 1099 c 5,24,-1
 315 1099 l 1,25,26
 474 1264 474 1264 539 1264 c 1,0,1
494 875 m 1,27,28
 524 545 524 545 452 252 c 1,29,30
 448 134 448 134 512 147 c 1,31,32
 749 301 749 301 749 380 c 1,33,34
 674 979 674 979 599 979 c 0,35,36
 558 979 558 979 494 875 c 1,27,28
EndSplineSet
Validated: 33
EndChar

StartChar: uni05DE
Encoding: 1502 1502 516
Width: 1292
GlyphClass: 2
Flags: W
LayerCount: 2
Fore
SplineSet
287 1406 m 1,0,-1
 322 1406 l 1,1,2
 444 1209 444 1209 573 1209 c 2,3,-1
 591 1209 l 2,4,5
 688 1209 688 1209 770 1325 c 1,6,7
 823 1353 823 1353 860 1325 c 1,8,9
 860 1088 860 1088 1021 358 c 1,10,11
 1021 251 1021 251 716 152 c 1,12,13
 198 0 198 0 152 0 c 1,14,15
 81 7 81 7 81 72 c 0,16,17
 81 246 81 246 600 331 c 1,18,19
 849 408 849 408 851 439 c 2,20,-1
 851 475 l 1,21,22
 752 884 752 884 690 1018 c 1,23,-1
 600 994 l 1,24,-1
 331 654 l 1,25,26
 259 549 259 549 77 472 c 1,27,28
 4 478 4 478 0 546 c 1,29,30
 300 769 300 769 433 987 c 1,31,32
 397 988 397 988 308 1069 c 1,33,34
 215 1136 215 1136 215 1281 c 1,35,36
 249 1394 249 1394 287 1406 c 1,0,-1
EndSplineSet
Validated: 33
EndChar

StartChar: uni05DF
Encoding: 1503 1503 517
Width: 611
GlyphClass: 2
Flags: W
LayerCount: 2
Fore
SplineSet
494 1300 m 1,0,1
 542.884934322 1245.12915535 542.884934322 1245.12915535 367 1129 c 2,2,-1
 211 1026 l 1,3,-1
 199 902 l 1,4,5
 498 570 498 570 498 410 c 2,6,-1
 498 398 l 2,7,8
 498 -168 498 -168 89 -938 c 1,9,10
 -65 -1058 -65 -1058 2 -838 c 0,11,12
 171 -281 171 -281 340 276 c 1,13,-1
 348 400 l 1,14,15
 0 681 0 681 0 964 c 0,16,17
 0 1097 0 1097 161 1212 c 1,18,-1
 494 1300 l 1,0,1
EndSplineSet
Validated: 524321
EndChar

StartChar: uni05E0
Encoding: 1504 1504 518
Width: 899
GlyphClass: 2
Flags: W
LayerCount: 2
Fore
SplineSet
482 1312 m 0,0,1
 549 1312 549 1312 662 1149 c 1,2,-1
 662 1131 l 1,3,4
 619 922 619 922 611 805 c 1,5,6
 619 660 619 660 671 435 c 1,7,8
 671 259 671 259 267 168 c 1,9,10
 111 99 111 99 60 99 c 1,11,12
 0 123 0 123 0 194 c 0,13,14
 0 287 0 287 430 461 c 1,15,-1
 447 512 l 1,16,-1
 447 564 l 1,17,-1
 404 977 l 1,18,19
 404 1312 404 1312 482 1312 c 0,0,1
EndSplineSet
Validated: 1
EndChar

StartChar: uni05E1
Encoding: 1505 1505 519
Width: 1317
GlyphClass: 2
Flags: W
LayerCount: 2
Fore
SplineSet
132 1203 m 1,0,-1
 153 1203 l 1,1,2
 229 1207 229 1207 296 964 c 1,3,4
 839 1098 839 1098 1030 995 c 1,5,6
 1129 922 1129 922 1105 814 c 1,7,8
 1105 515 1105 515 765 71 c 1,9,10
 596 -110 596 -110 542 -110 c 1,11,12
 493 -89 493 -89 489 -67 c 1,13,14
 489 15 489 15 712 283 c 1,15,16
 791 402 791 402 831.5 496.5 c 128,-1,17
 872 591 872 591 856 676 c 1,18,19
 848 815 848 815 743 814 c 2,20,-1
 690 814 l 1,21,22
 382 782 382 782 382 718 c 1,23,24
 287 102 287 102 96 102 c 1,25,26
 45 117 45 117 21 166 c 1,27,28
 170 412 170 412 170 718 c 1,29,30
 0 787 0 787 0 963 c 2,31,-1
 0 995 l 1,32,33
 11 1195 11 1195 132 1203 c 1,0,-1
EndSplineSet
Validated: 33
EndChar

StartChar: uni05E2
Encoding: 1506 1506 520
Width: 1101
GlyphClass: 2
Flags: W
LayerCount: 2
Fore
SplineSet
918 1216 m 1,0,1
 993 1148 993 1148 993 1143 c 4,2,3
 962 732 962 732 180 63 c 1,4,-1
 126 116 l 1,5,-1
 86 128 l 2,6,7
 86 128 86 128 110 208 c 1,8,9
 368 459 368 459 494 704 c 1,10,11
 250 924 250 924 157 1179 c 1,12,13
 177 1245 177 1245 283 1245 c 2,14,-1
 308 1245 l 5,15,16
 366 1068 366 1068 354 1036 c 4,17,18
 346.000382912 1009.6922046 346.000382912 1009.6922046 590 944 c 1,19,-1
 634 928 l 1,20,21
 659 946 659 946 740 1220 c 1,22,23
 829 1218 829 1218 918 1216 c 1,0,1
EndSplineSet
EndChar

StartChar: uni05E3
Encoding: 1507 1507 521
Width: 801
GlyphClass: 2
Flags: W
LayerCount: 2
Fore
SplineSet
334 1255 m 1,0,1
 419 1255 419 1255 574 267 c 1,2,3
 574 53 574 53 399 53 c 1,4,5
 257 4 257 4 102 -12 c 1,6,7
 44 -12 44 -12 24 46 c 1,8,9
 24 151 24 151 214 218 c 1,10,11
 380 244 380 244 380 325 c 1,12,13
 237 884 237 884 208 886 c 1,14,-1
 78 804 l 1,15,16
 17 824 17 824 10 853 c 1,17,-1
 10 892 l 1,18,-1
 159 1109 l 1,19,20
 182 1178 182 1178 276 1236 c 1,21,-1
 334 1255 l 1,0,1
EndSplineSet
Validated: 1
EndChar

StartChar: uni05E4
Encoding: 1508 1508 522
Width: 1139
GlyphClass: 2
Flags: W
LayerCount: 2
Fore
SplineSet
642 1255 m 1,0,1
 727 1255 727 1255 866 360 c 1,2,-1
 866 350 l 2,3,4
 866 146 866 146 691 146 c 1,5,6
 549 97 549 97 107 0 c 1,7,-1
 78 0 l 2,8,9
 20 0 20 0 0 58 c 1,10,11
 0 163 0 163 506 311 c 1,12,13
 671 337 671 337 671 418 c 1,14,15
 545 884 545 884 516 886 c 1,16,-1
 292 691 l 1,17,18
 231 711 231 711 224 740 c 1,19,-1
 224 779 l 1,20,-1
 360 954 l 1,21,-1
 467 1109 l 1,22,23
 490 1109 490 1109 584 1236 c 1,24,-1
 642 1255 l 1,0,1
EndSplineSet
Validated: 1
EndChar

StartChar: uni05E5
Encoding: 1509 1509 523
Width: 972
GlyphClass: 2
Flags: W
LayerCount: 2
Fore
SplineSet
243 1263 m 1,0,1
 344 1275 344 1275 320 1126 c 1,2,-1
 339 1017 l 1,3,4
 472 1050 472 1050 533 1202 c 1,5,-1
 593 1233 l 1,6,7
 700 1208 700 1208 700 1157 c 1,8,9
 620 951 620 951 522.5 891 c 128,-1,10
 425 831 425 831 396 776 c 1,11,12
 465 471 465 471 433 394 c 1,13,14
 350 155 350 155 91 0 c 1,15,16
 0 0 0 0 0 107 c 1,17,18
 213 332 213 332 213 396 c 1,19,20
 262 530 262 530 183 776 c 1,21,22
 143 843 143 843 122 1065 c 1,23,24
 122 1197 122 1197 243 1263 c 1,0,1
EndSplineSet
Validated: 33
EndChar

StartChar: uni05E6
Encoding: 1510 1510 524
Width: 1191
GlyphClass: 2
Flags: W
LayerCount: 2
Fore
SplineSet
888 1398 m 0,0,1
 945 1398 945 1398 945 1108 c 1,2,-1
 954 940 l 2,3,4
 954 877 954 877 711 809 c 1,5,6
 561 703 561 703 561 687 c 0,7,8
 562 568 562 568 683 154 c 1,9,10
 683 24 683 24 56 -79 c 1,11,12
 8 -79 8 -79 0 -51 c 1,13,-1
 0 -32 l 2,14,15
 0 141 0 141 178 173 c 1,16,17
 436 249 436 249 449 304 c 1,18,-1
 449 351 l 1,19,20
 387 757 387 757 234 1005 c 1,21,-1
 187 1089 l 1,22,-1
 187 1127 l 1,23,24
 204 1218 204 1218 337 1379 c 1,25,-1
 355 1379 l 2,26,27
 379 1379 379 1379 477 949 c 1,28,-1
 514 949 l 1,29,-1
 711 1033 l 1,30,-1
 729 1276 l 1,31,32
 735 1296 735 1296 776 1342 c 1,33,34
 856 1398 856 1398 888 1398 c 0,0,1
EndSplineSet
Validated: 1
EndChar

StartChar: uni05E7
Encoding: 1511 1511 525
Width: 1235
GlyphClass: 2
Flags: W
LayerCount: 2
Fore
SplineSet
812 1300 m 1,0,1
 981 1280 981 1280 981 1148 c 1,2,3
 970 913 970 913 633 515 c 1,4,5
 508 429 508 429 508 319 c 0,6,7
 508 20 508 20 392 -127 c 1,8,-1
 384 -127 l 1,9,10
 303 -64 303 -64 303 -28 c 1,11,12
 366 93 366 93 366 239 c 0,13,14
 366 435 366 435 223 774 c 1,15,-1
 223 783 l 1,16,17
 285 889 285 889 285 925 c 1,18,-1
 276 925 l 1,19,-1
 196 916 l 1,20,21
 71 916 71 916 0 1148 c 1,22,23
 0 1229 0 1229 116 1273 c 1,24,25
 238 1166 238 1166 268 1166 c 2,26,-1
 303 1166 l 1,27,-1
 812 1300 l 1,0,1
392 943 m 1,28,-1
 499 587 l 1,29,30
 611 679 611 679 758 934 c 1,31,32
 794 988 794 988 794 1041 c 1,33,34
 779 1077 779 1077 731 1077 c 1,35,36
 392 982 392 982 392 943 c 1,28,-1
EndSplineSet
Validated: 1
EndChar

StartChar: uni05E8
Encoding: 1512 1512 526
Width: 1170
GlyphClass: 2
Flags: W
LayerCount: 2
Fore
SplineSet
172 1224 m 0,0,1
 206 1224 206 1224 332 1075 c 1,2,-1
 353 1075 l 1,3,-1
 839 1137 l 1,4,5
 981 1137 981 1137 1009 425 c 1,6,-1
 1009 351 l 2,7,8
 1009 150 1009 150 860 0 c 1,9,-1
 829 0 l 1,10,11
 765 34 765 34 765 74 c 1,12,13
 786 164 786 164 786 308 c 1,14,15
 816 835 816 835 710 899 c 1,16,-1
 253 856 l 1,17,18
 96 856 96 856 0 1105 c 1,19,20
 0 1223 0 1223 172 1224 c 0,0,1
EndSplineSet
Validated: 33
EndChar

StartChar: uni05E9
Encoding: 1513 1513 527
Width: 1649
GlyphClass: 2
Flags: W
LayerCount: 2
Fore
SplineSet
707 1296 m 1,0,1
 849 1276 849 1276 849 1198 c 0,2,3
 849 1014 849 1014 419 689 c 1,4,-1
 419 469 l 2,5,6
 419 416 419 416 459 399 c 1,7,-1
 479 399 l 1,8,9
 907 570 907 570 1118 939 c 1,10,11
 1186 1258 1186 1258 1298 1258 c 2,12,-1
 1358 1258 l 1,13,14
 1428 1230 1428 1230 1428 1148 c 2,15,-1
 1428 1118 l 2,16,17
 1428 908 1428 908 1078 509 c 1,18,19
 833 318 833 318 589 220 c 1,20,-1
 359 10 l 1,21,-1
 320 0 l 1,22,23
 230 49 230 49 230 160 c 1,24,-1
 240 339 l 1,25,26
 215 621 215 621 0 1038 c 1,27,-1
 0 1098 l 1,28,29
 58 1208 58 1208 150 1298 c 1,30,-1
 170 1298 l 2,31,32
 223 1298 223 1298 369 909 c 1,33,-1
 379 909 l 1,34,35
 547 1002 547 1002 657 1208 c 1,36,-1
 707 1296 l 1,0,1
EndSplineSet
Validated: 1
EndChar

StartChar: uni05EA
Encoding: 1514 1514 528
Width: 1211
GlyphClass: 2
Flags: W
LayerCount: 2
Fore
SplineSet
263 1300 m 1,0,-1
 280 1300 l 2,1,2
 328 1300 328 1300 399 1037 c 1,3,-1
 416 1037 l 1,4,5
 627 1215 627 1215 722 1215 c 1,6,7
 960 1151 960 1151 960 654 c 0,8,9
 960 358 960 358 807 51 c 1,10,11
 738 9 738 9 731 93 c 1,12,13
 782 323 782 323 782 442 c 2,14,-1
 782 518 l 1,15,16
 754 960 754 960 663 960 c 2,17,-1
 654 960 l 2,18,19
 534 960 534 960 442 799 c 1,20,-1
 442 790 l 1,21,-1
 459 348 l 1,22,23
 459 49 459 49 51 0 c 4,24,25
 36 0 36 0 0 59 c 5,26,-1
 0 102 l 2,27,28
 0 175 0 175 170 204 c 1,29,30
 296 250 296 250 280 391 c 1,31,32
 169 994 169 994 102 994 c 1,33,-1
 85 1071 l 1,34,35
 85 1153 85 1153 221 1292 c 1,36,-1
 263 1300 l 1,0,-1
EndSplineSet
Validated: 33
EndChar

